<?xml version="1.0" standalone="no"?>
<!DOCTYPE svg PUBLIC "-//W3C//DTD SVG 20010904//EN"
 "http://www.w3.org/TR/2001/REC-SVG-20010904/DTD/svg10.dtd">
<svg version="1.0" xmlns="http://www.w3.org/2000/svg"
 width="1280.000000pt" height="1280.000000pt" viewBox="0 0 1280.000000 1280.000000"
 preserveAspectRatio="xMidYMid meet">
<metadata>
Created by potrace 1.14, written by Peter Selinger 2001-2017
</metadata>
<g transform="translate(0.000000,1280.000000) scale(0.100000,-0.100000)"
fill="#000000" stroke="none">
<path d="M5825 11909 c6 -9 2 -11 -13 -7 -12 4 -24 2 -27 -2 -3 -4 -19 -7 -36
-6 -17 1 -33 -3 -35 -8 -2 -6 -14 -12 -27 -12 -35 -3 -50 -8 -66 -22 -7 -7
-20 -11 -28 -8 -7 3 -16 -1 -19 -9 -4 -8 -10 -12 -15 -9 -5 3 -12 -2 -15 -10
-3 -9 -10 -13 -15 -10 -5 3 -9 0 -9 -6 0 -6 -4 -8 -10 -5 -5 3 -10 2 -10 -4 0
-6 -7 -8 -15 -5 -11 5 -13 2 -8 -12 4 -11 3 -15 -5 -10 -6 3 -13 2 -17 -4 -4
-6 -11 -7 -17 -4 -7 4 -8 2 -4 -4 4 -7 3 -12 -1 -12 -5 0 -30 -20 -57 -45 -27
-25 -46 -45 -43 -45 4 0 -2 -9 -13 -20 -11 -11 -25 -20 -31 -20 -5 0 -8 -4 -4
-9 3 -5 -5 -17 -17 -25 -12 -9 -18 -16 -13 -17 6 -1 -1 -4 -15 -8 -14 -4 -30
-4 -37 1 -7 6 -15 3 -22 -9 -7 -12 -10 -13 -11 -4 0 11 -3 11 -17 0 -11 -9
-14 -10 -9 -2 5 9 2 11 -8 7 -9 -3 -13 -10 -10 -15 3 -5 0 -9 -5 -9 -6 0 -11
4 -11 8 0 5 -7 9 -14 9 -12 0 -13 -5 -4 -20 5 -11 6 -17 1 -14 -16 10 -33 -7
-22 -23 8 -13 10 -13 19 0 8 12 10 12 10 1 0 -11 3 -11 15 -1 12 10 15 10 15
-1 0 -8 6 -5 14 7 8 10 18 16 22 12 4 -4 13 -3 21 4 10 8 17 8 26 -1 9 -10 8
-11 -4 -6 -10 4 -20 2 -23 -4 -4 -6 -13 -8 -21 -4 -8 3 -15 1 -15 -5 0 -5 11
-9 25 -8 14 0 25 -3 24 -9 0 -5 -7 -9 -14 -9 -9 1 -12 -3 -8 -9 10 -17 11 -47
1 -41 -4 3 -8 -5 -8 -18 0 -13 -5 -29 -12 -36 -9 -9 -9 -12 1 -12 7 0 9 -5 6
-10 -4 -6 -12 -7 -18 -3 -9 5 -8 2 0 -8 10 -13 10 -19 -1 -35 -11 -15 -12 -22
-3 -33 10 -12 9 -13 -2 -6 -11 6 -13 4 -8 -8 3 -10 3 -17 -1 -17 -4 0 -6 -50
-5 -111 2 -83 -1 -114 -11 -124 -8 -8 -16 -11 -20 -8 -3 4 -6 1 -6 -7 0 -9 -4
-10 -13 -2 -8 7 -18 7 -27 2 -21 -14 -32 -12 -24 3 4 6 -6 1 -22 -13 -15 -14
-23 -17 -16 -8 11 14 10 16 -7 11 -12 -3 -21 -10 -21 -17 0 -6 -5 -4 -10 4 -5
8 -10 10 -10 3 0 -6 -13 -10 -30 -9 -16 1 -30 -2 -30 -7 0 -5 -8 -3 -17 4 -11
10 -14 10 -9 2 7 -13 -4 -17 -31 -14 -7 1 -13 -2 -13 -7 0 -4 -10 -8 -22 -9
-62 -1 -79 -4 -74 -11 3 -5 -5 -8 -17 -7 -12 1 -28 -5 -35 -14 -8 -9 -11 -11
-7 -4 7 14 -34 11 -76 -5 -19 -8 -30 -7 -38 1 -9 9 -11 8 -5 -6 5 -13 2 -16
-12 -10 -11 4 -15 3 -11 -4 8 -12 -11 -12 -31 0 -7 5 -14 3 -18 -6 -2 -7 -11
-14 -19 -15 -8 -1 -22 -3 -30 -4 -8 -1 -15 -6 -15 -12 0 -6 -5 -4 -10 4 -6 10
-10 11 -10 2 0 -6 -3 -11 -7 -11 -22 4 -44 -2 -39 -10 3 -4 -6 -7 -19 -5 -23
2 -30 -6 -26 -29 1 -5 -3 -5 -9 -2 -6 4 -9 14 -6 24 5 13 3 12 -8 -3 -8 -10
-20 -15 -26 -11 -9 6 -9 2 -1 -14 7 -11 8 -21 3 -21 -5 0 -14 10 -20 23 l-11
22 0 -25 c-1 -18 -4 -21 -10 -12 -4 8 -11 13 -15 12 -4 -1 -20 9 -36 23 -15
14 -31 23 -34 20 -3 -4 -6 0 -6 9 0 8 -21 25 -46 38 -25 13 -48 28 -51 33 -3
6 -1 7 5 3 7 -4 12 -2 12 5 0 7 -8 9 -21 6 -12 -3 -18 -3 -15 0 7 7 -19 33
-33 33 -11 0 -15 15 -12 34 1 5 -6 3 -15 -5 -12 -9 -15 -9 -10 -1 4 7 1 12 -8
12 -16 0 -39 33 -30 43 3 3 -3 3 -15 0 -17 -4 -21 -1 -21 16 0 12 -4 20 -8 17
-5 -3 -22 8 -37 24 -15 16 -32 27 -37 24 -4 -3 -12 5 -17 18 -6 14 -10 17 -11
8 -1 -9 -5 -6 -10 7 -6 15 -15 21 -25 17 -8 -3 -15 -1 -15 6 0 6 -4 8 -10 5
-5 -3 -10 1 -10 9 0 8 -9 18 -20 21 -11 3 -20 13 -20 22 0 10 -6 14 -20 10
-11 -3 -18 0 -17 7 1 6 -4 10 -10 8 -7 -1 -13 5 -13 13 0 14 -12 19 -32 16 -5
0 -8 4 -8 10 0 15 -26 39 -34 32 -3 -4 -6 2 -6 13 0 16 -2 17 -10 4 -8 -13
-10 -13 -10 2 0 21 -16 32 -26 17 -5 -8 -2 -10 7 -5 8 4 5 0 -5 -8 -11 -9 -15
-16 -8 -16 7 0 10 -14 8 -36 -1 -19 1 -37 4 -39 4 -2 6 -14 5 -27 -1 -13 2
-31 7 -40 5 -12 5 -18 -2 -18 -6 0 -5 -8 2 -20 11 -17 10 -22 -2 -30 -13 -9
-13 -10 0 -10 12 0 15 -11 14 -50 0 -27 2 -50 5 -50 4 0 6 -12 5 -27 0 -16 4
-31 10 -35 8 -6 8 -8 0 -8 -6 0 -10 -10 -8 -22 1 -13 3 -23 4 -23 1 0 2 -26 3
-57 1 -32 6 -58 11 -58 4 0 3 -6 -3 -13 -6 -8 -9 -16 -6 -19 5 -5 18 -81 18
-108 0 -8 5 -18 11 -22 7 -5 6 -8 -3 -8 -9 0 -10 -4 -4 -12 5 -7 9 -43 9 -80
-1 -39 3 -68 9 -68 6 0 3 -5 -5 -10 -8 -5 -10 -10 -3 -10 6 0 9 -9 6 -20 -3
-12 0 -20 7 -20 10 0 10 -3 1 -14 -9 -10 -9 -16 -1 -21 8 -5 8 -11 -1 -21 -9
-11 -7 -15 6 -20 17 -7 17 -8 1 -19 -13 -10 -14 -14 -3 -18 13 -5 13 -15 5
-104 -1 -7 -5 -10 -10 -7 -5 3 -6 9 -3 14 3 6 -9 2 -27 -8 -18 -9 -34 -20 -36
-24 -2 -5 -10 -8 -18 -8 -8 0 -14 -5 -14 -11 0 -5 -4 -8 -9 -4 -6 3 -14 -3
-20 -12 -6 -10 -11 -14 -11 -9 0 6 -7 1 -16 -10 -8 -10 -13 -12 -9 -4 4 10 2
9 -8 -2 -8 -10 -17 -15 -20 -11 -4 3 -7 -1 -7 -10 0 -10 -8 -17 -20 -17 -11 0
-23 -7 -26 -15 -4 -8 -12 -15 -20 -15 -7 0 -17 -8 -23 -17 -5 -10 -13 -15 -17
-11 -4 4 -17 -3 -29 -17 -13 -13 -26 -21 -29 -18 -3 4 -6 1 -6 -6 0 -7 -4 -10
-8 -7 -5 3 -15 -4 -22 -15 -8 -10 -20 -19 -28 -19 -7 0 -10 -4 -7 -10 3 -5 -1
-10 -9 -10 -9 0 -16 -6 -16 -12 0 -9 -4 -8 -10 2 -8 13 -10 12 -10 -2 0 -10
-6 -18 -14 -18 -8 0 -17 -7 -20 -16 -4 -10 -14 -14 -25 -11 -14 3 -18 1 -14
-9 3 -8 -1 -14 -10 -14 -8 0 -17 -5 -19 -10 -2 -6 -14 -12 -26 -13 -17 -1 -22
-6 -19 -19 3 -9 2 -17 -2 -16 -25 3 -41 -3 -35 -14 6 -10 4 -10 -8 0 -11 9
-18 10 -23 2 -3 -6 -11 -8 -16 -5 -5 4 -9 1 -9 -6 0 -7 -6 -4 -14 7 -8 10 -19
20 -25 20 -22 3 -23 4 -12 18 9 10 8 16 -3 26 -9 6 -19 9 -23 7 -5 -3 -9 3 -9
13 0 18 1 18 20 2 18 -16 19 -16 13 0 -3 9 0 22 8 28 15 13 35 6 35 -12 0 -7
-4 -7 -14 1 -11 9 -13 5 -12 -19 1 -17 5 -30 10 -29 5 0 13 -5 18 -13 7 -10 8
-8 4 5 -5 14 -2 17 13 12 10 -3 24 1 31 10 7 8 17 12 23 8 6 -4 7 -1 3 6 -6 9
-13 8 -27 -5 -11 -9 -20 -15 -22 -13 -21 37 -34 69 -27 69 6 0 10 5 10 10 0 7
-7 7 -21 0 -11 -7 -23 -9 -27 -6 -3 3 1 6 9 6 8 1 3 7 -11 16 -23 14 -24 14
-2 9 12 -4 21 -3 20 2 -4 17 14 56 21 44 6 -9 12 -7 22 5 8 10 9 15 4 12 -6
-4 -11 2 -11 12 0 15 3 17 15 7 12 -10 14 -9 8 8 -6 16 -3 15 12 -5 11 -13 17
-29 14 -34 -3 -5 -1 -6 6 -2 9 6 9 11 1 21 -14 16 -4 38 12 29 7 -5 8 -2 3 6
-4 7 -2 16 6 22 11 8 10 9 -3 4 -10 -3 -20 0 -24 6 -4 7 -3 8 4 4 7 -4 12 -3
12 2 0 6 8 8 19 5 10 -3 22 0 25 6 5 7 1 8 -11 4 -16 -6 -16 -5 -4 11 8 9 20
15 27 12 9 -3 11 0 7 11 -4 10 -2 14 4 10 6 -4 13 2 16 13 3 13 11 18 20 14 9
-3 16 3 20 15 3 15 10 19 21 15 11 -4 16 -2 14 7 -2 8 4 13 14 13 10 -1 15 2
12 7 -3 5 0 9 6 9 6 0 8 5 4 11 -4 7 -1 10 7 7 8 -3 20 2 27 11 8 10 11 10 6
2 -5 -10 -3 -12 5 -7 7 5 10 14 7 22 -3 9 0 11 11 7 9 -4 14 -2 10 3 -3 6 4
11 16 11 12 1 23 7 25 13 2 5 8 8 13 4 5 -3 9 2 9 10 0 8 6 19 13 23 12 8 19
53 8 53 -4 0 -17 -7 -29 -16 -12 -8 -22 -12 -22 -8 0 4 -10 -4 -22 -18 -13
-14 -31 -24 -41 -23 -9 2 -15 -1 -12 -5 3 -5 -3 -11 -14 -15 -11 -3 -22 -13
-25 -21 -3 -8 -10 -12 -16 -9 -5 3 -10 1 -10 -5 0 -6 -12 -15 -26 -20 -14 -6
-23 -14 -20 -19 3 -5 -8 -14 -24 -20 -17 -5 -30 -15 -30 -21 0 -6 -4 -9 -9 -6
-5 3 -12 -1 -15 -10 -3 -8 -10 -13 -15 -9 -5 3 -13 -4 -16 -16 -4 -11 -9 -18
-12 -15 -6 5 -21 -5 -68 -49 -18 -17 -38 -29 -44 -27 -6 2 -9 -3 -5 -12 4 -11
1 -16 -10 -16 -9 0 -21 -9 -28 -20 -7 -11 -17 -20 -21 -20 -5 0 -18 -10 -29
-22 -11 -13 -16 -17 -12 -9 5 10 3 12 -5 7 -7 -5 -10 -15 -7 -23 3 -8 2 -11
-3 -8 -6 3 -14 -3 -20 -12 -6 -10 -11 -15 -11 -10 0 4 -8 -1 -18 -10 -11 -10
-17 -21 -15 -25 2 -5 -3 -8 -11 -8 -9 0 -16 -7 -16 -15 0 -8 -6 -12 -14 -9 -8
3 -16 -4 -19 -17 -4 -13 -9 -20 -13 -16 -4 4 -12 -1 -19 -10 -10 -13 -30 -17
-93 -17 -44 -1 -78 2 -75 7 2 4 0 7 -6 7 -5 0 -12 -6 -15 -12 -5 -10 -7 -10
-12 0 -3 6 -11 9 -17 5 -7 -4 -30 -9 -52 -10 -63 -3 -119 -13 -125 -22 -3 -5
-13 -7 -22 -5 -10 1 -18 -2 -18 -6 0 -5 -9 -7 -20 -5 -11 2 -18 0 -15 -6 4 -5
-1 -9 -9 -9 -18 0 -110 -49 -114 -62 -2 -4 -8 -6 -13 -2 -5 3 -9 0 -9 -7 0 -7
-3 -10 -6 -7 -3 3 -16 -4 -29 -16 -40 -37 -53 -45 -59 -39 -3 4 -6 -3 -6 -15
0 -12 -3 -21 -8 -21 -17 3 -32 -1 -30 -8 2 -5 -5 -19 -15 -33 -9 -13 -17 -20
-17 -15 -1 6 -8 -2 -16 -17 -8 -16 -19 -28 -25 -28 -6 0 -7 -5 -4 -10 3 -6 -1
-13 -9 -16 -9 -3 -13 -10 -10 -15 3 -5 -2 -12 -10 -15 -9 -3 -14 -10 -11 -14
3 -5 0 -14 -7 -22 -13 -14 -20 -33 -21 -55 0 -7 -4 -10 -9 -7 -4 3 -9 0 -9 -5
-2 -12 -5 -26 -9 -38 -1 -5 -2 -12 -1 -17 1 -4 -3 -14 -10 -22 -6 -8 -9 -21
-5 -29 3 -8 1 -15 -5 -15 -5 0 -9 -6 -8 -12 3 -24 -1 -39 -9 -35 -4 3 -6 -17
-5 -44 1 -31 -3 -49 -10 -49 -7 0 -5 -5 3 -10 9 -6 10 -10 3 -10 -6 0 -11 -8
-9 -17 1 -10 -9 -29 -22 -43 -14 -14 -22 -19 -18 -12 4 6 2 12 -3 12 -11 0
-15 -15 -11 -35 1 -5 -4 -4 -11 3 -15 14 -33 16 -25 3 3 -5 -2 -8 -12 -7 -9 0
-16 -5 -15 -11 2 -7 -2 -13 -7 -13 -6 0 -10 -7 -10 -15 0 -8 -4 -15 -10 -15
-5 0 -10 -7 -10 -15 0 -9 -7 -18 -15 -21 -8 -4 -12 -10 -9 -15 3 -5 0 -9 -5
-9 -6 0 -10 -6 -8 -12 1 -7 -4 -12 -11 -10 -8 1 -11 -2 -8 -7 4 -5 -1 -17 -10
-25 -8 -9 -12 -16 -8 -16 3 0 1 -7 -6 -15 -7 -8 -9 -15 -4 -15 5 0 1 -5 -9
-11 -9 -6 -15 -14 -12 -20 4 -5 1 -9 -4 -9 -6 0 -11 -7 -11 -15 0 -8 -4 -15
-10 -15 -5 0 -9 -3 -8 -7 4 -15 -13 -53 -23 -53 -6 0 -7 -4 -4 -10 3 -5 1 -10
-4 -10 -6 0 -10 -3 -9 -7 4 -16 -14 -53 -22 -48 -5 3 -7 -4 -5 -15 2 -11 0
-18 -6 -15 -5 4 -9 3 -10 -2 -3 -30 -9 -48 -19 -51 -5 -2 -8 -8 -4 -13 3 -5 0
-9 -6 -9 -6 0 -9 -4 -5 -9 3 -5 -1 -15 -8 -23 -8 -7 -12 -19 -9 -26 2 -6 -1
-12 -7 -12 -6 0 -11 -9 -11 -21 0 -11 -4 -18 -9 -15 -5 4 -8 -2 -7 -11 2 -10
-4 -24 -13 -31 -11 -9 -11 -11 -2 -6 9 5 6 -5 -7 -23 -12 -17 -22 -41 -22 -52
0 -12 -5 -21 -11 -21 -6 0 -9 -6 -6 -14 3 -8 2 -16 -4 -18 -5 -2 -11 -14 -14
-28 -3 -14 -9 -26 -14 -28 -6 -2 -8 -9 -5 -16 3 -8 -2 -16 -12 -20 -14 -5 -14
-9 -3 -23 12 -14 12 -16 -1 -11 -10 4 -16 0 -17 -11 -2 -28 -22 -71 -32 -71
-6 0 -8 -7 -4 -15 3 -9 2 -15 -3 -13 -5 2 -11 -1 -14 -7 -3 -5 -25 -29 -50
-53 -25 -24 -45 -49 -45 -55 -1 -7 -6 -11 -13 -10 -7 2 -9 -4 -5 -14 4 -11 3
-14 -5 -9 -7 4 -12 1 -12 -7 0 -8 -7 -18 -16 -21 -8 -3 -13 -10 -10 -15 4 -5
2 -11 -3 -13 -5 -1 -11 -10 -13 -18 -2 -8 -11 -23 -21 -34 -9 -11 -17 -26 -17
-33 0 -8 -4 -11 -10 -8 -5 3 -7 0 -4 -8 3 -8 1 -18 -5 -22 -6 -3 -11 -15 -11
-26 0 -10 -4 -19 -8 -19 -9 0 -11 -8 -14 -55 -1 -17 -7 -24 -15 -21 -11 4 -11
1 -3 -14 6 -11 7 -20 3 -20 -5 0 -8 -15 -8 -32 0 -18 -6 -40 -13 -50 -9 -10
-10 -18 -3 -22 7 -4 7 -15 1 -30 -5 -13 -6 -27 -3 -30 3 -3 0 -13 -8 -23 -8
-9 -9 -14 -3 -10 7 4 12 -12 13 -49 2 -69 4 -77 16 -86 6 -5 5 -8 -3 -8 -10 0
-10 -5 -1 -21 6 -12 9 -32 6 -45 -2 -14 0 -27 5 -30 6 -4 5 -10 -3 -15 -11 -7
-10 -9 3 -9 14 0 16 -4 9 -23 -5 -13 -5 -30 -1 -37 5 -8 4 -22 -1 -32 -5 -10
-7 -18 -3 -18 3 0 1 -7 -6 -15 -11 -13 -10 -14 6 -8 17 6 17 5 6 -10 -8 -9
-11 -20 -8 -26 3 -5 0 -12 -6 -14 -10 -4 -10 -6 0 -6 8 -1 10 -6 5 -13 -4 -7
-8 -44 -8 -83 0 -38 -4 -76 -9 -84 -5 -8 -4 -16 5 -22 8 -5 9 -9 3 -9 -6 0
-12 -15 -12 -32 0 -18 -1 -37 -2 -43 -1 -5 -1 -32 0 -58 1 -26 -4 -54 -10 -62
-9 -11 -7 -12 12 -9 21 5 21 4 4 -6 -15 -10 -16 -14 -5 -21 12 -8 12 -10 0
-18 -10 -6 -10 -10 -1 -16 6 -4 9 -13 6 -21 -3 -7 4 -18 15 -24 11 -6 16 -16
13 -22 -4 -7 -3 -8 4 -4 6 4 8 14 5 24 -6 15 -5 16 12 2 10 -8 16 -10 12 -3
-4 6 -2 15 4 18 5 4 8 13 5 21 -3 8 0 14 6 14 7 0 6 5 -2 15 -7 8 -8 15 -3 15
11 0 11 29 -1 48 -4 6 -3 12 3 12 7 0 7 8 1 26 -6 15 -6 23 -1 19 5 -3 13 -1
16 5 4 6 1 9 -7 8 -7 -2 -11 3 -9 12 2 8 3 35 1 60 -1 25 -2 65 0 90 1 25 2
59 3 77 1 17 5 29 9 27 16 -10 8 9 -9 22 -17 13 -17 14 0 8 11 -4 17 -2 15 6
-2 7 5 14 15 15 9 2 15 0 12 -5 -3 -5 0 -10 6 -12 9 -3 9 -9 1 -24 -10 -19 -8
-20 29 -18 21 1 37 -2 34 -7 -3 -4 -13 -6 -23 -3 -14 5 -14 4 -3 -4 8 -6 21
-7 30 -4 13 5 14 3 4 -10 -15 -18 -5 -32 13 -17 10 8 11 5 7 -13 -5 -19 -3
-21 8 -10 18 17 34 15 19 -3 -7 -8 -8 -15 -3 -15 5 0 17 -14 27 -31 13 -22 21
-27 30 -19 10 8 13 4 12 -17 -1 -21 4 -28 16 -27 10 1 15 -2 12 -7 -3 -5 -2
-15 3 -21 11 -18 10 -42 -2 -50 -6 -5 -4 -8 5 -8 13 0 13 -2 1 -9 -13 -8 -13
-12 0 -27 9 -11 9 -15 2 -10 -8 4 -13 2 -13 -8 0 -8 6 -17 13 -19 9 -4 9 -6 0
-6 -7 -1 -13 -10 -13 -22 0 -13 -4 -18 -13 -13 -8 5 -8 2 2 -9 7 -9 10 -17 7
-17 -4 0 -2 -9 4 -19 7 -14 7 -22 -2 -27 -7 -5 -8 -3 -3 6 5 9 4 11 -4 6 -6
-4 -8 -12 -4 -19 10 -16 12 -78 3 -72 -12 8 -1 -47 13 -64 8 -10 9 -13 1 -8
-7 4 -15 0 -18 -9 -4 -11 -2 -15 8 -11 10 4 13 1 9 -9 -3 -7 -9 -14 -15 -14
-5 0 -2 -7 6 -16 18 -17 21 -28 6 -19 -14 9 -13 -8 2 -23 9 -9 9 -12 -1 -12
-7 0 -9 -5 -6 -10 4 -6 11 -8 16 -5 5 3 6 -1 3 -9 -3 -9 -9 -14 -13 -11 -4 2
-8 -2 -8 -10 0 -8 7 -15 15 -15 10 0 11 -4 5 -12 -11 -15 -11 -108 0 -125 5
-8 3 -13 -5 -13 -8 0 -9 -3 -3 -8 13 -10 18 -30 16 -70 -1 -24 2 -31 10 -26 8
5 9 3 4 -7 -12 -19 -14 -49 -3 -55 5 -3 3 -13 -4 -22 -8 -10 -9 -13 -1 -9 6 4
14 3 18 -3 3 -5 0 -10 -7 -10 -9 0 -9 -3 2 -10 12 -8 12 -10 1 -10 -9 0 -10
-4 -4 -12 5 -7 9 -20 8 -28 -1 -8 2 -23 7 -32 4 -9 4 -19 0 -22 -11 -6 -9 -36
3 -55 4 -8 9 -38 9 -68 0 -29 5 -53 9 -53 5 0 7 -11 5 -25 -4 -17 -1 -25 8
-25 13 0 18 -13 15 -33 -1 -5 3 -6 8 -2 6 3 15 -5 22 -17 10 -20 10 -22 -2
-13 -8 6 -7 3 3 -6 9 -9 14 -19 11 -23 -4 -3 1 -6 11 -6 9 0 14 -5 11 -10 -4
-6 -11 -8 -16 -4 -6 3 -5 -4 3 -16 11 -19 11 -23 0 -27 -10 -4 -9 -8 4 -17 15
-12 15 -13 -1 -29 -10 -10 -12 -17 -4 -17 9 0 9 -3 0 -14 -7 -8 -10 -26 -7
-40 3 -14 1 -26 -4 -26 -5 0 -7 -11 -4 -25 2 -14 0 -25 -6 -25 -6 0 -6 -9 -1
-22 10 -28 3 -51 -12 -41 -6 3 -3 -4 6 -17 10 -14 13 -28 8 -34 -12 -16 -19
-76 -9 -82 5 -3 6 -10 2 -15 -3 -5 -1 -15 5 -22 6 -8 6 -18 1 -27 -5 -9 -5
-19 1 -26 5 -6 10 -28 11 -48 1 -20 4 -36 7 -36 4 0 8 -12 9 -27 1 -15 5 -29
10 -32 4 -3 9 -15 10 -26 2 -11 11 -29 20 -39 14 -15 14 -18 2 -12 -9 4 -8 2
2 -7 10 -8 18 -21 18 -30 0 -8 7 -18 16 -21 8 -3 13 -10 10 -15 -4 -5 -3 -11
1 -13 12 -5 53 -66 53 -78 0 -6 5 -8 10 -5 6 3 10 -3 10 -15 0 -12 4 -18 10
-15 5 3 10 2 10 -4 0 -13 48 -61 61 -61 6 0 7 -5 4 -10 -3 -6 0 -10 8 -10 8 0
18 -7 21 -16 3 -8 10 -13 14 -10 5 3 15 -4 22 -15 8 -10 20 -19 28 -19 7 0 10
-5 6 -12 -4 -6 -3 -8 4 -4 6 3 18 -1 26 -10 9 -8 16 -13 16 -9 0 4 7 -1 16 -9
8 -9 20 -14 25 -11 5 4 9 1 9 -4 0 -6 6 -10 13 -9 6 2 11 -3 9 -10 -1 -8 2
-11 8 -7 5 3 10 0 10 -7 0 -9 3 -9 10 2 6 10 10 11 10 3 0 -7 9 -13 20 -13 11
0 20 -4 20 -9 0 -4 10 -7 22 -7 13 1 32 -5 42 -13 11 -9 16 -11 12 -4 -5 9 1
8 20 -1 14 -8 37 -13 50 -11 13 1 24 -1 24 -4 0 -4 24 -7 52 -6 29 1 61 -3 72
-8 13 -7 16 -6 11 3 -6 9 -2 9 14 1 16 -9 21 -9 21 1 0 6 7 3 15 -8 15 -19 15
-19 8 1 -7 21 -5 21 17 -9 10 -13 10 -17 3 -12 -19 11 -16 -4 4 -27 13 -15 14
-18 3 -12 -13 8 -13 6 -1 -8 7 -9 18 -14 23 -11 6 4 8 -1 4 -14 -5 -13 -1 -22
10 -26 9 -3 14 -13 11 -20 -3 -8 1 -17 8 -20 8 -3 12 -12 9 -21 -5 -11 -2 -14
10 -9 9 4 16 3 15 -2 -4 -23 2 -45 11 -39 6 3 10 -3 10 -15 0 -12 7 -28 15
-37 8 -8 13 -19 10 -24 -4 -5 -1 -9 6 -9 7 0 9 -3 6 -6 -3 -4 -2 -15 4 -25 7
-14 6 -19 -3 -19 -9 0 -9 -3 2 -10 10 -6 11 -10 3 -10 -7 0 -13 -7 -13 -17 0
-9 -3 -14 -6 -10 -7 7 -38 -24 -47 -47 -4 -9 -11 -14 -17 -11 -5 3 -10 -1 -10
-10 0 -9 -4 -13 -10 -10 -5 3 -10 0 -10 -7 0 -10 -2 -10 -9 1 -7 11 -9 11 -13
0 -5 -12 -9 -12 -28 -1 -12 8 -19 9 -15 3 3 -6 1 -12 -4 -12 -6 -1 -20 -3 -31
-4 -11 -1 -27 -3 -36 -4 -9 -1 -12 -6 -8 -14 5 -9 4 -9 -6 0 -8 7 -19 8 -29 3
-24 -13 -55 -23 -63 -22 -5 1 -8 -3 -8 -9 0 -6 -7 -9 -15 -5 -8 3 -18 -2 -23
-10 -5 -8 -18 -16 -30 -17 -12 0 -19 -3 -16 -6 7 -7 -49 -41 -58 -35 -4 3 -5
-2 -2 -10 4 -12 0 -16 -16 -16 -11 0 -18 -5 -15 -10 3 -6 1 -10 -4 -10 -6 0
-11 -7 -11 -16 0 -8 -4 -13 -8 -10 -5 3 -21 -9 -38 -27 -16 -17 -22 -27 -14
-23 8 5 0 -5 -18 -23 -18 -17 -30 -31 -27 -31 4 0 -4 -14 -17 -32 -12 -18 -23
-39 -25 -47 -1 -9 -7 -17 -12 -19 -6 -2 -11 -12 -11 -22 0 -10 -5 -22 -10 -25
-6 -4 -8 -10 -5 -15 3 -5 0 -12 -6 -15 -5 -4 -8 -13 -5 -21 3 -8 2 -14 -3 -14
-4 0 -8 -6 -8 -12 -1 -7 -4 -29 -8 -48 -8 -49 -13 -180 -6 -180 3 0 7 -17 9
-38 1 -20 7 -38 12 -40 6 -2 10 -12 10 -22 0 -10 5 -22 10 -25 6 -4 8 -10 5
-15 -3 -5 4 -11 15 -15 11 -3 19 -9 19 -13 -3 -21 3 -32 17 -32 8 0 12 -4 9
-10 -3 -5 0 -10 7 -10 8 0 20 -9 28 -19 7 -11 17 -18 22 -15 4 3 8 0 8 -7 0
-7 3 -10 6 -6 8 8 43 -24 60 -56 19 -35 35 -55 106 -131 104 -110 109 -116
101 -117 -4 0 2 -4 15 -10 13 -5 20 -13 17 -19 -3 -5 1 -10 10 -10 8 0 18 -6
21 -14 5 -14 94 -110 94 -102 0 3 24 -18 53 -47 30 -29 52 -55 50 -60 -3 -4
-1 -7 4 -6 12 3 63 -23 59 -30 -3 -4 7 -11 20 -18 13 -6 22 -7 19 -3 -8 14 24
5 38 -10 9 -11 8 -11 -8 0 -18 14 -19 14 -6 -2 7 -10 18 -15 25 -11 17 12 35
12 42 2 3 -6 15 -7 26 -3 11 3 18 2 15 -2 -3 -5 5 -9 18 -9 13 0 21 4 17 9 -3
5 2 7 10 3 9 -3 20 -1 26 5 6 6 12 6 16 -1 5 -8 13 -8 27 -1 14 8 19 7 19 -2
0 -10 2 -10 9 1 5 7 14 10 20 7 6 -4 11 -2 11 5 0 8 4 8 15 -1 8 -7 15 -8 15
-3 0 5 15 8 33 8 17 0 40 3 51 8 13 6 21 5 27 -4 7 -11 9 -11 9 1 0 13 1 13
10 0 7 -11 10 -11 10 -2 0 9 13 12 48 8 54 -5 82 -14 82 -27 0 -5 6 -9 13 -9
7 0 23 -9 35 -20 12 -12 22 -17 22 -13 0 4 4 4 8 -2 15 -20 56 -50 48 -35 -5
8 2 3 15 -11 13 -14 30 -24 38 -21 8 3 11 0 7 -7 -6 -10 0 -13 20 -10 3 0 15
-10 28 -24 12 -13 28 -21 35 -19 8 3 11 0 7 -7 -5 -7 1 -11 13 -11 12 0 21 -4
21 -10 0 -5 7 -10 15 -10 8 0 15 -4 15 -8 0 -5 22 -19 50 -32 27 -13 47 -27
44 -32 -3 -5 -2 -8 3 -7 4 1 24 -5 43 -14 19 -8 38 -13 42 -11 4 3 5 -3 1 -12
-5 -13 -3 -15 7 -9 8 5 18 2 26 -9 7 -10 14 -17 16 -17 14 2 48 -13 48 -21 0
-5 5 -6 10 -3 6 3 10 1 10 -5 0 -6 4 -8 10 -5 5 3 10 1 10 -4 0 -6 9 -11 20
-11 11 0 20 -4 20 -10 0 -5 7 -10 16 -10 9 0 23 -8 31 -17 8 -10 12 -13 9 -6
-7 13 55 -15 65 -29 3 -5 16 -10 27 -11 12 -1 22 -4 22 -7 0 -7 63 -35 73 -32
4 1 7 -2 7 -8 0 -5 9 -10 20 -10 11 0 20 -4 20 -10 0 -5 5 -10 11 -10 5 0 7 6
4 13 -4 6 2 2 13 -10 11 -12 22 -19 26 -16 3 3 12 0 21 -7 8 -7 15 -9 15 -4 0
5 4 3 8 -4 5 -7 18 -14 30 -17 12 -2 28 -7 35 -12 6 -4 19 -8 27 -10 8 -1 16
-7 18 -13 2 -5 8 -8 12 -5 8 5 72 -19 122 -46 10 -5 27 -9 38 -9 14 0 19 -4
14 -12 -5 -8 0 -7 11 2 10 8 16 10 12 4 -7 -12 40 -30 51 -20 3 3 12 -3 20
-15 10 -15 17 -17 27 -9 9 7 16 6 24 -4 7 -8 23 -13 36 -11 14 1 22 -2 19 -6
-5 -9 9 -12 48 -12 10 0 15 -4 12 -8 -4 -8 25 -14 49 -10 4 0 7 -3 7 -8 0 -5
12 -8 27 -8 15 0 29 -6 31 -12 2 -6 8 -9 13 -5 5 3 14 2 21 -2 11 -7 33 -11
86 -17 12 -1 22 -9 23 -17 0 -10 2 -11 6 -3 3 10 12 9 39 -2 25 -10 34 -11 34
-2 0 8 3 7 9 -2 5 -8 15 -12 23 -9 8 3 22 0 32 -7 10 -7 29 -11 43 -9 14 3 22
1 19 -5 -4 -6 2 -8 14 -6 11 2 27 -3 35 -11 9 -9 15 -11 15 -4 0 6 5 8 12 4 7
-4 26 -9 43 -10 53 -3 56 -4 49 -16 -6 -10 -4 -10 8 0 12 10 18 10 23 1 6 -8
10 -7 16 2 6 10 9 11 9 2 0 -9 18 -13 54 -13 30 0 58 -5 61 -10 4 -6 12 -7 23
-1 11 6 24 4 41 -8 14 -9 22 -11 18 -3 -5 6 -4 12 2 12 6 0 11 -4 11 -9 0 -4
11 -7 25 -6 14 2 27 0 30 -4 5 -10 36 -8 54 4 9 5 12 4 7 -3 -4 -6 1 -11 11
-11 48 -1 100 -8 112 -15 10 -7 12 -5 7 3 -9 14 25 12 35 -3 4 -4 17 -3 29 4
12 7 20 8 17 3 -3 -5 15 -9 41 -9 26 1 50 -3 54 -9 5 -6 8 -5 8 3 0 8 6 10 18
5 9 -5 52 -8 95 -8 42 1 77 -3 77 -8 0 -5 8 -3 17 4 14 12 15 12 9 1 -7 -11
-4 -12 13 -3 16 9 21 9 21 -1 0 -8 3 -9 8 -3 9 13 42 16 42 4 0 -6 9 -5 20 1
15 8 20 8 20 -2 0 -8 3 -9 8 -3 10 14 32 17 32 5 0 -7 6 -7 18 -1 13 7 23 6
30 -1 9 -9 12 -7 12 8 1 18 1 18 11 1 8 -13 14 -15 30 -7 10 6 19 7 19 3 0 -4
5 -2 12 5 9 9 16 8 32 -6 12 -10 16 -11 11 -3 -6 11 -3 13 13 9 12 -3 23 -1
25 5 2 6 9 7 17 2 16 -10 60 -14 60 -5 0 3 21 5 47 4 27 -1 56 3 67 8 13 7 16
7 12 -1 -8 -12 6 -15 17 -5 6 6 55 12 147 17 14 1 28 6 32 12 5 7 8 6 8 -1 0
-11 28 -12 45 -2 6 3 18 4 28 3 9 -2 17 0 17 4 0 5 18 7 40 6 22 -1 40 1 40 5
0 4 10 7 23 6 12 -1 34 1 50 5 18 5 27 4 27 -4 0 -7 4 -6 10 3 5 8 10 11 10 6
0 -5 7 -3 16 5 13 10 17 10 24 0 5 -9 9 -10 14 -2 4 6 12 9 17 6 5 -4 9 -3 9
2 0 4 17 9 38 10 44 2 96 11 129 24 14 5 28 7 33 4 5 -3 11 -1 15 4 3 6 12 8
20 4 9 -3 15 1 15 8 0 11 3 11 10 -1 5 -8 10 -10 10 -5 0 6 10 11 22 12 11 1
25 8 29 15 7 10 9 11 9 0 0 -10 5 -10 20 -2 11 6 25 8 30 5 6 -3 10 -2 10 2 0
8 19 13 63 16 9 1 17 4 17 8 0 4 8 6 18 5 9 -2 20 1 23 5 3 5 18 10 35 12 16
2 42 9 57 15 16 7 33 10 38 6 5 -3 9 -1 9 5 0 6 7 7 17 4 10 -4 14 -2 9 5 -4
6 1 11 11 11 38 1 53 5 53 12 0 4 9 6 20 4 11 -2 20 1 20 7 0 5 7 8 15 4 8 -3
15 -2 15 3 0 9 67 26 83 22 5 -1 6 3 2 9 -4 6 5 10 20 10 14 0 24 4 21 9 -4 5
2 8 11 6 10 -1 27 2 38 8 11 6 23 10 28 9 4 -1 7 3 7 9 0 5 4 8 9 4 5 -3 12
-1 16 5 3 5 11 10 16 10 6 0 7 -5 3 -12 -4 -7 -3 -8 4 -4 7 4 12 14 12 23 0
13 3 13 15 3 8 -7 15 -9 15 -4 0 5 11 14 25 21 19 8 23 8 18 0 -3 -7 3 -4 14
6 12 10 27 19 35 21 7 1 19 5 26 10 7 4 16 6 19 2 3 -3 12 2 20 10 8 8 19 12
24 9 5 -4 9 -1 9 5 0 6 5 8 10 5 6 -3 10 -1 10 5 0 6 4 9 9 5 5 -3 12 -1 16 5
3 5 15 10 26 10 10 0 19 4 19 9 0 5 10 11 23 13 12 2 21 8 20 14 -1 6 4 11 12
11 8 0 11 -5 8 -11 -4 -6 3 -3 14 6 11 10 25 18 32 18 7 0 10 4 7 8 -2 4 5 9
17 9 12 1 23 7 25 13 2 5 8 8 13 4 5 -3 9 0 9 5 0 6 3 10 8 10 14 -3 72 23 72
32 0 5 6 9 14 9 7 0 19 7 26 15 7 8 16 12 21 9 5 -3 9 0 9 5 0 6 3 10 8 9 11
-2 46 14 54 26 4 6 12 11 18 11 6 0 15 7 20 15 5 8 10 11 10 7 0 -5 12 0 28
11 30 21 63 36 75 34 4 -1 6 2 5 7 -2 5 2 10 7 11 6 1 14 8 18 16 5 8 12 12
18 9 5 -4 12 1 15 9 3 9 10 13 15 10 5 -3 9 -1 9 5 0 6 11 13 25 17 14 4 24 9
21 12 -9 8 33 34 44 27 6 -4 7 1 3 11 -4 11 -2 15 4 11 5 -3 21 4 34 16 13 12
27 22 32 22 5 0 14 8 21 17 7 10 16 15 19 11 4 -3 9 2 13 11 3 9 10 13 15 10
5 -3 9 0 9 7 0 7 3 10 6 6 3 -3 15 4 26 15 15 15 22 17 34 7 11 -9 14 -9 14 0
0 7 5 9 12 5 20 -13 68 -13 61 0 -4 6 4 3 19 -6 14 -9 29 -14 32 -11 11 12 67
12 60 1 -4 -6 2 -5 15 1 16 9 21 9 21 0 0 -7 3 -9 6 -6 4 3 16 2 27 -4 14 -8
18 -8 12 1 -5 8 3 9 32 4 21 -4 40 -8 42 -10 1 -1 14 1 28 7 13 5 22 5 19 0
-3 -5 1 -11 9 -15 8 -3 17 -1 20 5 4 5 11 7 16 3 5 -3 17 0 26 8 12 9 15 9 9
1 -4 -7 -3 -13 3 -13 5 0 13 5 16 10 4 6 11 8 16 5 5 -4 9 -2 9 4 0 6 7 7 17
4 11 -4 14 -3 9 5 -6 11 5 17 27 13 4 0 6 2 5 6 -4 11 39 53 46 46 3 -4 6 -1
6 5 0 6 10 17 23 23 21 12 21 11 7 -7 -8 -10 20 15 62 58 42 42 79 74 82 70 3
-3 6 -1 6 5 0 15 87 102 95 95 4 -4 6 -2 5 3 -4 20 0 36 9 31 5 -3 25 16 45
44 20 27 40 50 46 50 5 0 10 4 10 10 0 14 88 99 95 92 3 -4 3 1 -1 11 -3 10
-1 17 5 17 6 0 11 5 11 11 0 7 8 18 18 26 11 10 12 12 2 8 -12 -5 -12 -4 1 7
9 7 20 24 24 38 4 14 13 32 20 40 7 8 12 27 11 42 -1 20 2 24 10 17 9 -7 12
-5 9 8 -1 10 -9 17 -16 15 -8 -1 -5 4 5 13 12 9 15 15 7 15 -11 0 -11 3 0 17
10 11 10 14 2 9 -9 -5 -13 0 -13 14 0 14 4 19 13 14 10 -6 10 -4 0 7 -16 16
-17 43 -2 33 8 -5 8 -1 0 13 -7 14 -7 23 1 31 9 9 9 12 -1 12 -10 0 -11 3 -2
13 6 8 7 17 1 23 -7 7 -13 43 -19 127 -1 5 -6 5 -13 1 -7 -5 -8 -3 -3 7 12 18
14 49 3 43 -4 -3 -8 1 -8 8 0 7 -6 25 -14 40 -11 20 -11 28 -3 32 7 2 3 5 -8
5 -17 1 -17 3 -5 11 12 7 12 10 1 10 -7 0 -11 6 -7 15 3 8 0 14 -7 12 -7 -1
-11 4 -9 11 1 6 -2 12 -8 12 -5 0 -10 9 -10 20 0 11 -4 20 -10 20 -5 0 -10 7
-10 15 0 8 -5 15 -12 15 -6 0 -9 3 -5 6 3 4 -2 14 -11 23 -10 9 -11 12 -3 6
12 -9 12 -7 2 13 -7 12 -15 20 -19 18 -5 -3 -8 5 -9 17 0 12 1 16 4 9 3 -7 13
-17 23 -22 14 -7 20 -6 25 7 3 10 3 14 -1 11 -8 -8 -76 41 -70 51 2 3 -2 14
-9 24 -8 12 -15 14 -20 8 -3 -6 -1 -11 5 -11 6 0 9 -4 5 -9 -3 -5 -1 -12 5
-16 13 -8 13 -25 -1 -25 -5 0 -7 5 -3 12 5 7 2 9 -9 5 -11 -4 -14 -2 -11 7 3
8 0 17 -7 22 -7 4 -10 3 -6 -3 3 -5 0 -10 -7 -10 -8 0 -12 9 -10 21 3 12 2 15
-2 9 -4 -10 -9 -9 -21 2 -8 8 -19 13 -24 9 -5 -3 -8 0 -7 7 2 7 -2 13 -9 14
-6 0 -15 4 -20 9 -4 5 -3 6 3 3 7 -4 14 0 18 8 6 17 2 19 -22 6 -10 -5 -26 -5
-37 0 l-20 9 20 -1 c36 -2 46 1 40 12 -4 6 -14 8 -22 4 -13 -4 -13 -3 -4 9 9
11 9 15 -1 19 -7 2 -10 8 -6 12 4 4 16 2 25 -6 15 -11 16 -11 6 1 -17 19 -16
30 3 30 9 0 12 -5 8 -12 -4 -6 -3 -8 3 -5 13 8 10 50 -4 54 -6 2 -14 -1 -18
-6 -4 -7 0 -8 11 -4 12 4 15 3 10 -6 -5 -7 -14 -10 -22 -7 -8 3 -13 0 -11 -6
1 -6 -5 -13 -13 -15 -12 -4 -12 -3 -2 5 8 5 13 13 13 18 -1 5 5 16 12 24 7 8
14 20 15 25 2 6 13 16 25 23 13 8 15 11 5 8 -10 -3 -20 -1 -23 5 -4 5 -11 7
-16 4 -9 -6 -58 25 -59 37 0 4 9 5 20 3 11 -2 20 2 20 8 0 7 4 6 10 -3 5 -8
10 -10 10 -4 0 5 -6 18 -13 28 -12 16 -14 16 -31 -3 -10 -11 -24 -17 -32 -14
-8 3 -14 0 -14 -7 0 -6 4 -8 10 -5 6 3 10 2 10 -3 0 -6 -7 -12 -15 -16 -8 -3
-15 0 -15 6 0 6 -3 9 -6 5 -13 -12 7 -27 24 -18 13 7 24 3 42 -16 23 -24 23
-25 3 -15 -16 9 -22 9 -26 -2 -6 -15 1 -26 15 -26 5 0 6 6 2 13 -4 6 -3 9 1 4
5 -4 9 -16 10 -27 1 -15 -2 -17 -11 -9 -9 7 -15 5 -23 -8 -9 -15 -10 -13 -6
11 2 16 1 26 -2 22 -9 -8 -34 14 -27 25 3 5 -3 6 -12 2 -10 -4 -15 -2 -11 3 3
5 -3 10 -13 10 -10 0 -16 -4 -13 -9 3 -5 0 -7 -8 -5 -8 3 -12 12 -11 19 2 8 0
10 -4 6 -11 -11 -14 -38 -3 -31 5 3 9 0 9 -6 0 -6 5 -8 10 -5 15 9 12 -4 -5
-21 -14 -14 -19 -11 -16 9 1 5 -3 6 -9 2 -6 -4 -4 -14 5 -29 14 -21 14 -25 -6
-47 -11 -13 -17 -17 -13 -9 15 28 13 47 -7 68 -11 12 -24 22 -29 22 -21 0 -26
2 -44 18 -11 9 -16 12 -13 6 8 -13 -20 -40 -30 -30 -3 3 -1 6 6 6 8 0 7 5 -4
16 -8 9 -23 13 -32 10 -13 -5 -14 -4 -4 8 10 12 9 14 -8 9 -14 -3 -23 1 -27
12 -5 13 -9 14 -15 3 -7 -10 -9 -10 -9 0 0 6 -9 12 -21 12 -11 0 -18 4 -15 9
3 5 -1 12 -10 15 -9 4 -13 2 -8 -5 4 -7 1 -10 -7 -7 -8 3 -13 11 -11 18 3 11
0 11 -12 0 -11 -8 -16 -9 -16 -1 0 6 -7 11 -15 11 -18 0 -19 11 -2 29 9 11 9
12 0 7 -9 -5 -11 -2 -7 8 3 9 10 13 15 10 5 -3 9 0 9 6 0 6 5 8 10 5 6 -3 10
1 10 9 0 9 6 13 14 10 8 -3 19 4 26 16 6 12 14 19 17 16 4 -3 12 3 20 14 8 11
21 20 29 20 8 0 14 5 14 11 0 5 5 7 10 4 6 -3 10 -1 10 6 0 7 3 9 7 6 3 -4 12
1 20 11 9 10 11 11 7 2 -4 -8 7 0 25 18 35 34 79 41 73 12 -2 -8 0 -11 5 -7 4
5 8 14 8 20 1 7 7 11 14 9 7 -1 10 2 7 7 -4 5 -2 12 4 16 6 4 8 10 5 15 -3 5
-1 11 5 15 5 3 10 1 10 -6 0 -8 5 -7 17 2 14 12 16 12 8 0 -6 -11 -4 -13 8 -8
19 7 31 -8 20 -25 -10 -17 -14 -42 -5 -33 4 4 7 12 7 18 1 7 6 11 13 10 7 -2
9 4 5 14 -6 15 -5 16 9 3 9 -8 13 -19 10 -25 -3 -5 1 -4 10 3 13 10 18 10 24
1 4 -7 3 -9 -3 -6 -5 3 -10 0 -10 -8 0 -11 4 -12 13 -4 6 5 28 9 48 7 28 -2
33 -5 24 -15 -6 -8 -14 -10 -17 -6 -3 4 -13 9 -21 11 -11 3 -12 0 -4 -8 6 -6
20 -13 30 -15 11 -1 18 -8 16 -14 -1 -6 2 -11 8 -11 13 0 13 13 0 26 -6 6 -2
14 13 23 20 13 21 13 9 -2 -8 -9 -9 -18 -3 -21 10 -7 9 -25 -2 -43 -5 -7 -6
-17 -2 -22 3 -5 -3 -12 -12 -14 -17 -4 -17 -5 0 -6 10 0 15 -6 12 -11 -4 -6
-11 -7 -17 -4 -6 4 -8 3 -5 -3 3 -5 20 -9 36 -8 17 1 28 -2 26 -6 -3 -4 2 -10
11 -13 8 -3 12 -2 9 3 -3 5 -1 12 5 16 5 3 10 12 10 18 0 7 -4 6 -10 -3 -15
-23 -12 -6 5 26 8 16 18 27 21 24 4 -3 9 6 11 20 2 18 1 21 -6 10 -5 -8 -7
-18 -4 -24 3 -5 1 -6 -6 -2 -14 9 1 39 22 42 10 1 14 -4 11 -14 -4 -11 -1 -10
8 3 16 26 33 26 53 0 9 -11 14 -14 10 -7 -5 10 6 16 26 14 4 -1 4 8 1 20 -5
19 -4 20 10 7 9 -7 13 -18 10 -24 -3 -5 2 -4 12 4 9 8 14 21 11 30 -4 13 -2
12 9 -1 16 -21 30 -24 23 -4 -7 18 15 15 39 -4 11 -9 15 -10 10 -3 -7 12 5 18
28 14 5 -1 5 6 2 16 -6 16 -6 16 13 -1 14 -13 21 -14 27 -5 4 8 3 10 -4 5 -7
-4 -12 -2 -12 3 0 6 7 11 16 11 8 0 12 5 8 11 -4 8 0 8 15 0 12 -7 21 -8 20
-4 -3 20 2 27 11 13 8 -12 10 -10 11 10 0 14 3 19 6 12 4 -10 9 -9 24 4 10 9
19 14 19 10 0 -4 12 1 28 12 15 10 35 22 45 25 9 4 17 11 17 18 0 6 7 8 16 5
8 -3 13 -2 10 2 -3 5 8 16 25 26 16 9 29 21 29 27 0 5 7 9 16 9 8 0 12 5 9 10
-3 6 1 10 10 10 9 0 14 3 12 7 -5 8 17 33 30 34 5 1 7 5 5 10 -1 5 3 9 9 9 5
0 7 5 4 10 -3 6 2 10 11 10 10 0 14 3 11 7 -4 3 2 12 13 20 11 8 20 19 20 25
0 5 11 24 25 40 14 16 23 34 19 39 -3 5 2 12 10 15 9 3 13 10 10 15 -3 5 0 9
5 9 6 0 10 3 9 8 -1 8 6 29 28 79 8 17 14 41 14 53 0 14 4 19 13 14 7 -5 6 0
-3 11 -9 11 -10 16 -2 11 8 -5 12 0 13 13 2 33 4 39 11 46 4 4 4 13 1 21 -3 8
0 21 6 28 9 11 9 15 -1 18 -9 4 -10 9 -2 19 12 16 11 80 -1 99 -5 9 -4 11 3 6
7 -4 12 -3 12 3 0 5 -5 13 -10 16 -8 5 -7 11 1 21 8 10 8 14 0 14 -7 0 -11 17
-9 46 1 30 -4 49 -13 55 -10 6 -10 9 -1 9 9 0 9 5 3 18 -11 19 -25 73 -23 85
1 4 -3 7 -10 7 -6 0 -8 3 -5 7 4 3 1 13 -6 21 -10 13 -9 14 3 7 8 -5 5 4 -8
19 -12 16 -20 32 -17 36 3 4 -2 13 -10 20 -8 7 -15 19 -15 26 0 8 -9 23 -21
35 -11 11 -21 29 -22 39 -1 10 -4 17 -8 14 -6 -4 -22 33 -20 48 0 4 -6 5 -14
2 -13 -6 -20 6 -16 29 0 4 -5 6 -11 5 -7 -2 -12 3 -10 10 2 11 -10 16 -30 13
-5 0 -8 8 -8 20 0 11 -4 17 -10 14 -5 -3 -10 0 -10 8 0 8 -10 19 -22 26 -13 6
-16 10 -7 7 9 -2 16 2 16 9 0 7 -5 12 -11 11 -6 -2 -7 -1 -3 2 4 2 2 11 -5 20
-10 14 -10 15 2 5 18 -16 44 -17 34 -1 -5 7 -3 8 7 2 8 -5 25 -10 37 -12 17
-2 22 1 16 10 -6 11 -5 11 8 0 13 -10 17 -10 21 0 4 10 6 10 6 1 1 -7 6 -13
12 -13 5 0 8 4 5 8 -3 5 1 9 9 9 8 0 12 -4 9 -9 -3 -4 0 -8 5 -8 6 0 11 5 11
10 0 6 6 9 13 8 6 -2 11 3 9 11 -2 9 3 11 14 7 13 -5 14 -4 6 7 -9 10 -8 17 0
25 7 7 9 12 5 12 -4 0 -3 9 3 19 7 15 6 23 -5 35 -13 13 -13 15 2 18 9 2 17
13 18 25 1 19 -1 21 -13 10 -13 -10 -14 -9 -3 11 6 12 9 22 7 22 -3 0 -1 12 4
26 8 19 7 31 -2 42 -10 12 -10 14 0 8 8 -5 12 2 12 24 0 22 4 29 13 24 9 -6 9
-4 -1 8 -10 13 -10 17 0 21 10 4 10 6 1 6 -7 1 -13 11 -13 23 0 21 0 21 15 2
13 -18 14 -18 8 4 -3 12 -9 25 -14 28 -10 6 11 44 25 44 5 0 1 -9 -9 -20 -16
-18 -16 -20 -2 -20 10 0 16 3 16 8 -1 4 0 9 1 12 7 18 7 39 0 35 -9 -6 -8 14
1 30 4 6 5 18 4 28 -2 9 0 15 5 12 4 -3 14 3 21 12 12 15 12 16 -5 10 -16 -6
-17 -5 -6 8 7 8 17 12 23 8 6 -3 7 -1 3 6 -4 6 -12 9 -17 6 -5 -4 -9 -2 -9 4
0 5 6 12 13 14 6 3 2 6 -10 6 -13 1 -23 6 -23 12 0 5 -4 8 -8 5 -4 -2 -14 4
-21 16 -7 11 -8 17 -3 14 5 -3 12 3 15 14 3 12 -1 24 -11 30 -16 9 -16 9 -1
10 9 0 20 7 23 16 5 14 4 15 -8 5 -11 -9 -15 -8 -20 4 -3 9 -2 13 4 10 6 -3
10 1 10 10 0 9 -4 13 -10 10 -6 -4 -7 1 -3 11 5 13 3 15 -7 9 -9 -5 -11 -4 -6
3 10 17 14 15 30 -15 l14 -28 -1 27 c-1 14 -6 24 -11 21 -4 -3 -5 5 -1 18 3
13 3 19 -2 13 -14 -18 -43 -25 -36 -9 3 8 9 12 14 9 5 -3 6 2 3 11 -5 12 -2
14 12 8 16 -6 17 -5 4 9 -9 10 -17 12 -21 6 -4 -7 -9 -7 -13 0 -3 6 -2 13 4
17 5 3 10 15 10 25 0 14 6 18 20 15 13 -3 18 0 14 7 -4 6 4 20 17 30 13 11 19
17 12 14 -15 -8 -44 4 -37 15 3 5 11 6 17 2 7 -4 6 0 -2 10 -14 18 -26 23 -16
8 10 -17 -12 -21 -26 -5 -7 8 -8 14 -3 12 14 -4 54 34 47 45 -3 6 -1 7 5 3 7
-4 12 -1 12 8 0 8 9 18 20 21 11 4 18 10 15 15 -3 4 2 10 10 14 8 3 15 12 15
21 0 8 4 15 9 15 5 0 13 9 16 20 3 11 13 20 21 20 8 0 13 4 9 10 -3 5 3 18 15
30 11 11 20 23 21 28 0 4 3 9 6 12 4 3 3 -1 -1 -7 -6 -11 4 -17 25 -15 3 1 6
-5 6 -13 0 -8 -4 -12 -9 -9 -4 3 -8 0 -8 -5 0 -6 5 -11 11 -11 8 0 8 -4 0 -14
-8 -9 -8 -16 -2 -20 6 -4 8 -13 4 -21 -3 -8 -2 -23 2 -32 13 -29 14 -43 4 -49
-6 -3 -5 -11 2 -20 7 -8 13 -38 14 -67 1 -29 5 -59 9 -65 4 -7 2 -12 -4 -12
-7 0 -8 -7 -3 -17 11 -23 10 -64 -1 -82 -6 -10 -5 -12 2 -7 7 4 12 3 12 -3 0
-5 -5 -13 -10 -16 -7 -4 -7 -11 -2 -18 10 -12 9 -27 -3 -62 -6 -16 -5 -17 4
-5 10 12 11 9 7 -17 -3 -26 -1 -30 12 -26 10 4 13 2 8 -5 -5 -8 1 -8 22 -1 22
7 29 16 28 34 -1 13 -5 27 -9 31 -4 4 1 12 10 19 13 9 13 14 3 20 -9 6 -11 4
-5 -6 5 -8 4 -11 0 -6 -12 10 -17 50 -6 43 8 -5 8 15 1 34 -6 15 -4 36 5 42 7
5 7 8 0 8 -6 0 -10 21 -9 48 0 26 -3 55 -8 64 -4 10 -4 19 1 23 13 7 10 45 -4
45 -6 0 -7 3 0 8 6 4 10 16 10 27 0 11 -4 23 -10 27 -6 5 -4 8 5 8 11 0 11 3
2 12 -16 16 -15 31 1 23 6 -4 4 0 -6 8 -14 11 -15 16 -5 20 10 4 10 6 1 6 -7
1 -13 6 -13 12 0 5 5 7 11 3 6 -3 3 8 -6 26 -12 23 -13 30 -3 24 10 -6 11 -5
2 7 -6 8 -10 22 -9 32 2 9 0 17 -5 17 -4 0 -6 13 -4 29 3 22 -1 31 -14 34 -15
4 -15 5 1 6 10 0 15 6 12 11 -4 6 -11 8 -16 5 -5 -4 -9 -1 -9 4 0 6 4 11 9 11
5 0 12 7 15 16 5 14 4 15 -9 4 -14 -11 -15 -10 -7 11 5 13 9 36 8 52 -1 15 1
27 4 27 3 0 6 49 7 110 0 71 -3 107 -10 103 -6 -4 -7 -1 -2 8 12 19 14 49 3
55 -4 3 -8 14 -8 25 0 10 -4 19 -8 19 -5 0 -8 10 -7 23 1 12 -5 31 -14 41 -13
16 -13 18 -1 11 13 -8 13 -7 1 8 -7 9 -10 17 -7 17 4 0 0 10 -8 22 -9 12 -16
30 -16 40 0 10 -4 18 -8 18 -4 0 -13 12 -19 28 -14 30 -32 59 -51 80 -7 7 -9
18 -6 24 4 7 2 8 -4 4 -7 -4 -12 -1 -12 9 0 10 -5 13 -12 9 -9 -5 -9 -2 1 9 7
9 9 17 3 17 -8 0 -12 20 -13 73 0 9 -4 17 -8 17 -4 0 -8 7 -9 15 -1 8 -3 22
-4 30 -1 8 -5 15 -10 15 -4 0 -8 5 -8 11 0 5 6 7 13 3 8 -6 8 -3 -1 9 -8 9
-11 21 -7 27 4 6 2 9 -3 8 -6 -2 -10 1 -10 6 0 5 -6 13 -14 17 -11 7 -11 9 0
9 10 0 9 4 -2 16 -9 8 -14 20 -11 25 4 5 2 9 -4 9 -5 0 -8 9 -6 20 2 11 -1 20
-6 20 -6 0 -7 5 -4 10 3 6 0 10 -7 10 -11 0 -10 2 0 9 11 7 11 9 -2 14 -9 4
-13 13 -10 22 3 8 1 15 -6 15 -6 0 -8 5 -5 10 3 6 0 10 -7 10 -9 0 -9 3 2 10
9 6 10 10 3 10 -6 0 -14 13 -18 30 -4 16 -11 32 -16 35 -5 4 -14 15 -20 27 -9
16 -8 19 3 12 11 -6 11 -5 -1 9 -7 9 -10 17 -5 17 5 0 5 4 -1 8 -17 12 -41 47
-27 38 6 -4 3 9 -9 28 -11 19 -18 40 -14 46 3 5 0 10 -7 10 -8 0 -15 10 -15
22 -1 13 -7 24 -12 26 -5 2 -7 10 -4 18 3 8 0 14 -7 14 -6 0 -8 5 -5 10 3 6 1
10 -4 10 -6 0 -11 7 -11 16 0 8 -7 22 -15 31 -8 8 -13 19 -10 24 4 5 3 9 -2 9
-4 0 -14 15 -22 33 -8 17 -21 41 -30 51 -9 11 -10 16 -4 12 9 -5 11 -2 7 8 -3
9 -10 16 -15 16 -5 0 -9 7 -9 15 0 8 -5 15 -12 15 -6 0 -8 3 -5 6 8 8 -21 62
-44 84 -9 8 -14 21 -12 28 3 6 0 12 -7 12 -6 0 -8 5 -5 10 3 6 1 10 -5 10 -6
0 -8 5 -5 10 3 6 -1 10 -9 10 -9 0 -15 3 -15 8 5 32 -12 39 -38 15 -15 -14
-17 -27 -3 -18 7 4 7 -3 0 -20 -5 -14 -6 -24 -1 -21 4 3 13 -6 19 -19 7 -14
16 -25 22 -25 6 0 9 -4 5 -9 -3 -5 2 -17 11 -25 8 -9 12 -16 8 -16 -4 0 1 -7
12 -16 10 -8 12 -12 4 -8 -11 6 -10 2 3 -13 9 -11 14 -23 10 -26 -3 -4 -1 -7
6 -7 7 0 9 -4 6 -10 -3 -5 -1 -10 4 -10 6 0 11 -7 11 -16 0 -8 7 -22 15 -31 8
-8 13 -19 10 -24 -4 -5 -3 -9 2 -9 9 0 33 -48 33 -67 0 -7 5 -13 11 -13 5 0 7
-4 4 -10 -3 -5 -1 -10 5 -10 7 0 10 -7 7 -15 -4 -8 -2 -17 4 -20 5 -4 6 -11 3
-17 -4 -7 -2 -8 4 -4 6 4 16 -4 23 -16 12 -22 11 -22 -7 -8 -18 14 -18 14 -5
-2 7 -10 10 -18 5 -18 -5 0 0 -7 10 -15 11 -8 16 -15 11 -15 -5 0 0 -7 11 -16
10 -8 12 -12 4 -8 -12 6 -13 4 -2 -7 15 -17 16 -43 0 -33 -7 4 -8 3 -4 -5 4
-6 11 -9 16 -6 5 3 14 -4 20 -16 7 -13 8 -19 2 -15 -6 3 -13 2 -17 -4 -3 -5
-1 -10 4 -10 6 0 11 -5 11 -11 0 -5 -4 -7 -10 -4 -6 3 -7 -1 -4 -10 4 -8 1
-22 -6 -30 -8 -9 -8 -15 -2 -15 6 0 9 -8 7 -17 -1 -10 -8 -17 -15 -15 -6 1 -9
-1 -6 -6 3 -5 -1 -17 -8 -27 -10 -14 -15 -15 -21 -5 -5 8 -4 11 2 7 5 -3 10 1
10 9 0 21 -20 0 -24 -26 -2 -15 1 -18 15 -13 10 4 8 -1 -8 -14 -24 -20 -50
-21 -50 -1 0 6 8 4 18 -3 15 -13 16 -12 3 4 -8 9 -16 15 -19 12 -3 -3 -12 1
-21 8 -14 10 -14 10 -3 -4 7 -9 10 -24 6 -32 -5 -13 -9 -14 -25 -4 -10 6 -19
16 -19 21 0 6 5 5 12 -2 7 -7 17 -12 23 -12 5 0 2 5 -8 11 -9 6 -15 14 -12 20
11 17 -7 9 -21 -8 -8 -12 -9 -22 -3 -30 13 -15 -3 -24 -21 -12 -8 5 -10 9 -5
9 6 0 11 9 11 19 0 12 -6 18 -16 16 -9 -2 -17 3 -17 11 0 26 -26 93 -34 88
-13 -8 -11 10 3 24 9 9 6 11 -11 7 -19 -3 -21 -2 -11 10 10 12 9 15 -5 15 -14
0 -15 3 -6 14 9 10 7 17 -6 27 -17 13 -17 13 -3 -6 14 -18 14 -19 -2 -7 -9 7
-15 24 -13 38 1 13 0 23 -2 20 -3 -3 -11 1 -18 7 -9 9 -10 16 -3 25 8 9 7 11
-5 6 -12 -4 -14 0 -10 18 4 19 3 20 -7 8 -10 -13 -11 -11 -7 7 3 12 0 21 -5
20 -6 -1 -12 7 -14 17 -1 10 -7 22 -12 25 -5 3 -12 18 -16 34 -3 15 -12 27
-19 27 -8 0 -7 4 3 10 13 8 13 10 -2 10 -9 0 -20 5 -24 12 -4 7 -3 8 4 4 8 -5
10 -2 6 8 -3 9 -10 14 -14 11 -5 -3 -10 5 -12 17 -2 13 -9 22 -15 21 -7 -1 -9
6 -5 19 3 14 1 19 -6 14 -8 -5 -12 1 -12 14 0 14 -4 19 -12 14 -8 -5 -9 -2 -5
9 4 11 1 17 -9 17 -8 0 -12 5 -9 10 3 6 0 13 -9 16 -8 3 -12 12 -10 19 3 8 -4
20 -15 27 -12 7 -21 20 -21 30 0 9 -9 23 -20 31 -11 8 -17 17 -13 20 3 4 1 7
-6 7 -7 0 -10 4 -6 9 5 10 -27 33 -42 30 -20 -3 -24 2 -12 18 12 14 12 16 -1
11 -9 -3 -21 4 -28 16 -9 14 -12 15 -8 4 3 -10 0 -20 -7 -24 -7 -4 -9 -4 -5 1
4 4 3 16 -3 27 -9 16 -13 17 -27 6 -14 -10 -13 -9 1 9 14 16 15 23 6 29 -8 5
-10 3 -4 -6 5 -8 4 -11 -3 -7 -7 5 -7 16 1 36 6 17 15 27 19 25 12 -8 5 19 -7
28 -5 4 1 8 14 8 18 0 21 3 12 13 -8 10 -7 17 1 25 9 9 9 12 -1 12 -7 0 -9 5
-5 13 6 9 4 9 -8 -1 -10 -8 -18 -9 -22 -3 -4 6 -13 8 -22 4 -8 -3 -14 -2 -12
3 2 5 -1 10 -6 11 -16 3 -33 47 -22 56 7 5 5 7 -4 6 -31 -3 -39 1 -33 18 4 11
3 14 -5 9 -7 -4 -13 -1 -13 8 -3 37 -5 41 -22 38 -9 -2 -17 2 -17 8 0 20 -3
25 -22 39 -11 7 -17 19 -13 28 5 13 3 14 -10 3 -9 -7 -15 -9 -14 -4 1 5 -3 20
-9 34 -6 14 -11 21 -12 15 0 -5 -4 -4 -9 4 -6 9 -4 22 4 35 14 20 15 25 15 47
0 5 4 8 9 4 5 -3 13 0 17 6 5 8 3 9 -6 4 -10 -6 -11 -4 -6 11 5 10 11 27 13
37 3 9 10 17 15 17 6 0 4 8 -3 17 -8 9 -9 14 -4 11 6 -4 17 -3 25 3 12 7 11 9
-4 9 -19 0 -19 0 -1 14 11 8 16 19 12 30 -4 9 -3 14 2 11 5 -3 12 -1 16 5 3 5
1 10 -6 10 -9 0 -9 3 0 14 12 15 54 18 45 4 -3 -4 -12 -5 -22 -2 -14 5 -15 4
-2 -5 8 -6 11 -11 6 -11 -12 0 14 -30 27 -30 6 0 3 6 -7 13 -17 13 -18 14 -2
20 9 4 15 3 13 -1 -7 -10 19 -32 29 -24 5 4 2 -2 -6 -12 -10 -13 -10 -17 -2
-12 11 7 17 -11 13 -37 -1 -5 3 -6 8 -2 6 3 7 13 4 23 -3 9 -4 15 -2 12 36
-42 42 -52 29 -45 -12 7 -13 6 -3 -7 7 -8 9 -19 5 -24 -4 -4 2 -2 13 6 11 8
17 11 13 6 -3 -4 7 -22 23 -38 16 -17 29 -35 29 -40 0 -6 14 -23 32 -40 26
-24 29 -31 17 -40 -12 -8 -12 -9 1 -5 8 2 21 -2 28 -9 7 -8 9 -14 5 -14 -4 0
0 -5 10 -11 9 -6 15 -14 12 -20 -4 -5 -1 -9 5 -9 7 0 10 -7 7 -14 -4 -10 -1
-13 9 -9 9 3 14 0 12 -8 -2 -8 2 -13 9 -12 6 2 10 -5 8 -15 -2 -13 4 -17 25
-17 24 0 27 4 26 28 -1 15 -8 33 -16 40 -10 10 -11 9 -5 -2 6 -10 4 -12 -4 -7
-9 6 -9 12 1 24 7 10 9 14 4 10 -10 -8 -36 14 -29 25 2 4 -1 7 -6 7 -6 0 -11
6 -11 14 0 8 -4 16 -8 18 -5 2 -26 28 -47 58 -21 30 -35 47 -32 37 4 -11 3
-16 -3 -12 -6 3 -10 13 -10 20 0 13 -26 46 -83 107 -10 10 -15 24 -11 30 4 6
3 8 -3 5 -6 -4 -21 7 -33 23 -12 16 -27 27 -33 23 -5 -3 -7 -2 -4 4 3 5 -1 20
-9 32 -13 18 -19 20 -30 10 -12 -10 -13 -9 -8 5 4 10 0 18 -11 22 -13 5 -14 9
-3 15 7 5 8 9 2 9 -6 0 -10 17 -10 40 1 22 -1 40 -4 40 -3 0 -5 18 -4 40 0 22
-3 40 -7 40 -5 0 -6 7 -2 16 3 9 0 20 -8 25 -12 7 -12 9 0 9 11 0 11 3 1 15
-7 8 -9 15 -5 15 4 0 3 6 -2 13 -6 6 -9 20 -8 30 2 9 -1 17 -6 17 -6 0 -7 5
-4 10 3 6 1 10 -4 10 -6 0 -11 10 -11 23 0 13 -9 33 -19 44 -11 12 -18 23 -15
25 2 3 -7 22 -21 42 -14 20 -25 41 -25 46 0 5 -7 13 -16 18 -9 5 -17 13 -17
18 -1 5 -5 8 -9 7 -8 -3 -12 13 -9 30 1 5 -3 6 -9 2 -5 -3 -13 2 -17 11 -9 23
-40 54 -47 47 -3 -4 -6 2 -7 13 0 12 -3 14 -6 6 -4 -10 -9 -7 -17 8 -6 13 -15
22 -19 21 -5 -1 -17 7 -27 19 -10 12 -22 21 -27 22 -4 0 -7 4 -6 9 2 4 -4 6
-12 3 -8 -4 -17 1 -21 9 -3 9 -12 13 -20 10 -8 -3 -14 0 -14 6 0 6 -3 10 -7 9
-5 -1 -28 7 -53 18 -25 10 -51 17 -59 16 -7 -2 -11 0 -8 5 5 8 -3 9 -90 15
-24 1 -43 6 -43 11 0 4 -9 3 -19 -3 -14 -7 -21 -6 -25 3 -5 9 -7 9 -12 0 -4
-9 -11 -10 -24 -3 -10 6 -21 6 -24 2 -3 -5 -21 -8 -40 -7 -20 1 -36 -1 -36 -5
0 -3 -16 -6 -36 -5 -20 1 -41 -3 -47 -10 -6 -7 -19 -10 -29 -7 -10 2 -18 -1
-18 -7 0 -7 -4 -10 -9 -6 -5 3 -13 0 -17 -6 -4 -8 -9 -7 -15 2 -7 11 -9 11 -9
-3 0 -11 -7 -15 -25 -14 -13 2 -23 -2 -22 -7 1 -6 -2 -12 -8 -12 -20 -3 -65
-28 -65 -37 0 -5 -4 -7 -9 -4 -5 3 -12 -1 -15 -10 -4 -10 -12 -14 -23 -10 -10
4 -14 4 -11 0 9 -9 -15 -33 -26 -26 -5 3 -7 -2 -3 -11 4 -12 2 -14 -10 -10
-11 4 -14 2 -9 -5 4 -7 1 -12 -8 -12 -9 0 -16 -5 -16 -11 0 -5 -4 -7 -10 -4
-5 3 -10 1 -10 -4 0 -6 0 -13 0 -16 0 -14 -42 -45 -53 -39 -7 4 -9 4 -5 -1 4
-4 -2 -21 -13 -36 -11 -16 -17 -29 -12 -29 4 0 -3 -7 -15 -16 -12 -8 -20 -20
-17 -25 4 -5 1 -9 -5 -9 -6 0 -9 -4 -6 -9 3 -5 -1 -14 -9 -21 -8 -7 -13 -16
-10 -20 8 -12 -41 -91 -50 -83 -5 5 -3 -1 5 -11 14 -18 13 -19 -2 -13 -10 3
-18 2 -18 -3 0 -6 6 -10 13 -10 9 0 8 -3 -2 -9 -8 -5 -9 -10 -3 -12 7 -3 5
-12 -5 -24 -15 -20 -15 -20 -9 2 5 16 3 21 -8 19 -9 -1 -19 -5 -22 -9 -4 -4
-12 -7 -18 -7 -6 0 -4 6 5 13 9 7 15 20 13 30 -1 9 2 15 7 11 5 -3 9 2 9 11 0
9 -7 15 -16 13 -10 -2 -19 3 -21 10 -3 6 1 12 9 12 10 0 9 3 -2 10 -10 6 -21
4 -35 -8 -19 -16 -19 -16 -6 1 10 13 10 17 1 17 -7 0 -10 8 -8 18 3 11 0 19
-7 19 -7 0 -11 -6 -8 -14 6 -16 -28 -6 -39 11 -4 6 -19 12 -34 13 -35 3 -41
10 -26 33 7 12 8 21 2 25 -6 4 -10 3 -9 -2 1 -4 -1 -16 -5 -25 -7 -15 -10 -15
-22 -3 -8 7 -14 18 -14 23 0 5 -7 15 -15 22 -8 7 -12 16 -9 21 3 5 -3 6 -12 2
-13 -5 -15 -3 -9 7 6 9 4 11 -5 5 -10 -6 -7 -12 9 -24 12 -9 19 -20 15 -24
-12 -12 -26 -8 -18 5 5 8 2 9 -10 5 -9 -4 -15 -3 -12 2 3 5 -1 14 -9 21 -13
11 -14 10 -9 -5 6 -15 5 -16 -15 -3 -13 7 -20 20 -18 30 3 11 0 15 -9 11 -8
-3 -11 -9 -8 -15 3 -5 -3 -4 -14 3 -21 13 -21 30 1 25 7 -1 9 -1 4 1 -4 3 -4
10 -1 16 5 8 2 8 -7 0 -20 -20 -31 -15 -19 7 9 16 8 18 -5 14 -9 -4 -21 1 -29
11 -11 16 -13 16 -13 1 0 -9 5 -16 11 -16 19 0 -13 -24 -36 -27 -18 -2 -20 -1
-8 7 10 6 11 13 5 18 -6 4 -10 19 -10 35 1 15 -2 27 -6 27 -4 0 -10 7 -13 16
-4 10 -2 13 7 8 9 -6 9 -5 0 7 -6 8 -10 29 -9 47 1 18 -1 35 -6 38 -4 3 -4 13
2 23 5 10 6 21 3 25 -4 4 -9 18 -11 32 -2 19 1 24 10 18 10 -6 10 -4 -1 9 -7
9 -10 17 -7 17 4 0 2 8 -3 18 -7 13 -6 23 2 32 9 10 9 11 0 6 -13 -7 -15 1
-17 87 0 20 -4 37 -9 37 -4 0 -3 9 3 20 8 15 8 20 -1 20 -8 0 -8 4 1 15 10 12
10 15 -1 15 -9 0 -10 3 -3 8 5 4 10 26 9 50 0 23 2 42 6 42 3 0 3 14 1 31 -4
25 -2 30 9 24 8 -5 10 -4 6 0 -14 16 -36 13 -42 -6 -4 -10 -9 -18 -13 -17 -12
3 -72 -38 -65 -45 3 -4 1 -7 -6 -7 -7 0 -10 -4 -7 -9 3 -5 -2 -8 -12 -7 -9 0
-16 -5 -14 -12 1 -8 -2 -11 -8 -7 -12 8 -42 -20 -32 -30 4 -4 2 -6 -3 -5 -20
4 -36 0 -31 -9 5 -8 -29 -25 -47 -22 -4 1 -6 -2 -6 -6 4 -22 -3 -31 -20 -28
-15 3 -18 -1 -14 -13 3 -9 2 -14 -2 -10 -5 5 -15 -1 -23 -13 -8 -11 -20 -18
-28 -15 -8 3 -14 0 -14 -7 0 -9 -3 -8 -9 1 -11 17 -44 22 -53 8 -5 -8 -8 -7
-8 2 0 6 -9 12 -20 12 -11 0 -20 5 -20 10 0 6 -10 10 -22 10 -19 0 -20 -2 -8
-10 9 -6 10 -10 3 -10 -7 0 -17 8 -22 18 -6 9 -11 12 -11 6 0 -6 -10 -10 -22
-8 -13 1 -26 3 -31 3 -4 1 -6 4 -5 9 3 7 -5 12 -17 12 -3 0 -1 -8 4 -18 7 -14
6 -19 -4 -19 -7 0 -11 6 -9 12 3 7 -7 20 -22 30 -14 9 -24 13 -21 8 3 -5 -4
-15 -16 -22 -12 -8 -19 -10 -15 -6 12 13 -21 36 -52 37 -26 1 -28 3 -17 17 10
14 10 14 -5 3 -12 -10 -18 -10 -23 -1 -6 8 -10 7 -16 -2 -7 -12 -9 -12 -9 0 0
10 -3 11 -13 3 -10 -8 -17 -7 -29 7 -10 12 -26 17 -52 15 -20 -2 -34 0 -32 5
3 4 -1 8 -9 8 -8 0 -11 -5 -8 -10 4 -6 -4 -3 -18 6 -28 20 -43 22 -33 5 4 -7
3 -10 -1 -5 -5 4 -18 -1 -29 -10 l-21 -18 20 24 c18 21 18 24 3 18 -10 -4 -18
-2 -18 4 0 6 -5 7 -10 4 -6 -4 -8 -12 -4 -18 3 -7 0 -5 -8 3 -15 17 -36 19
-57 6 -9 -6 -12 -5 -8 1 4 6 -6 15 -21 22 -25 10 -25 10 -8 -3 18 -14 17 -15
-10 -13 -16 1 -35 9 -42 17 -11 13 -12 11 -7 -10 4 -17 3 -21 -3 -11 -7 9 -12
10 -16 2 -4 -6 -12 -9 -17 -5 -14 8 0 26 14 18 7 -4 8 -3 4 1 -16 18 -86 24
-106 10 -11 -7 -13 -7 -7 3 4 6 3 12 -3 12 -5 0 -17 3 -27 7 -10 4 -15 2 -11
-4 3 -5 0 -10 -8 -10 -8 0 -12 4 -9 9 3 4 -4 8 -14 8 -14 0 -21 8 -24 30 -3
17 -2 30 1 30 3 0 6 23 6 50 0 28 -2 50 -5 50 -3 0 -6 15 -7 33 -6 91 -8 107
-15 107 -5 0 -8 5 -8 11 0 5 6 7 13 3 9 -6 9 -5 0 7 -6 8 -12 19 -13 24 -4 17
-8 29 -16 50 -4 11 -6 26 -5 33 1 6 -3 12 -9 12 -5 0 -10 9 -10 20 0 11 -5 20
-11 20 -5 0 -8 4 -4 9 3 5 0 13 -6 16 -5 4 -8 13 -5 21 3 8 -1 14 -9 14 -13 0
-16 4 -15 25 1 12 -26 33 -34 27 -5 -3 -6 -1 -3 5 3 5 -5 21 -19 36 -13 14
-24 30 -24 35 0 5 -11 18 -25 30 -14 12 -25 20 -25 18 0 -2 -14 9 -31 25 -17
16 -36 26 -42 22 -5 -3 -8 -2 -5 3 5 8 -23 43 -29 37 -8 -7 -24 -2 -19 6 3 4
-13 14 -35 21 -22 8 -43 18 -47 24 -4 6 -13 11 -19 12 -40 3 -44 5 -37 16 4 7
3 8 -4 4 -7 -4 -18 -4 -24 1 -7 4 -17 8 -23 9 -5 1 -28 6 -50 11 -22 6 -49 9
-60 7 -10 -2 -27 2 -38 8 -14 7 -17 7 -13 -1 8 -13 -21 -10 -43 3 -10 6 -12 5
-7 -2 4 -7 1 -12 -9 -12 -10 0 -14 5 -9 13 5 9 4 9 -6 0 -9 -9 -19 -9 -33 -2
-15 9 -18 8 -12 -2z m-621 -375 c3 -8 2 -12 -4 -9 -6 3 -10 10 -10 16 0 14 7
11 14 -7z m1630 -572 c3 -5 -1 -9 -9 -9 -8 0 -12 4 -9 9 3 4 7 8 9 8 2 0 6 -4
9 -8z m416 -62 c0 -5 -5 -10 -11 -10 -5 0 -7 5 -4 10 3 6 8 10 11 10 2 0 4 -4
4 -10z m160 -60 c0 -5 -2 -10 -4 -10 -3 0 -8 5 -11 10 -3 6 -1 10 4 10 6 0 11
-4 11 -10z m60 -20 c0 -5 -2 -10 -4 -10 -3 0 -8 5 -11 10 -3 6 -1 10 4 10 6 0
11 -4 11 -10z m124 -18 c3 -5 -1 -9 -9 -9 -8 0 -12 4 -9 9 3 4 7 8 9 8 2 0 6
-4 9 -8z m140 -10 c3 -5 -1 -9 -9 -9 -8 0 -12 4 -9 9 3 4 7 8 9 8 2 0 6 -4 9
-8z m507 -459 c-11 -5 -11 -7 0 -14 12 -7 12 -10 0 -21 -9 -8 -11 -9 -7 -1 3
6 2 14 -4 18 -13 8 -3 25 13 24 8 0 7 -3 -2 -6z m-28 -30 c-7 -2 -19 -2 -25 0
-7 3 -2 5 12 5 14 0 19 -2 13 -5z m204 -85 c-3 -8 -6 -5 -6 6 -1 11 2 17 5 13
3 -3 4 -12 1 -19z m212 -189 c-7 -14 -4 -21 12 -30 15 -8 19 -8 15 0 -4 6 -2
11 3 11 6 0 11 -13 11 -29 0 -16 3 -31 8 -34 4 -2 1 -2 -5 -1 -7 2 -13 0 -13
-4 0 -5 6 -14 13 -21 10 -11 9 -12 -1 -6 -9 5 -12 2 -10 -8 2 -9 -6 -23 -17
-31 -20 -14 -20 -15 0 -13 16 2 20 -4 21 -30 0 -18 -3 -30 -8 -27 -4 3 -8 0
-8 -5 0 -6 10 -11 23 -12 21 -1 21 -1 -3 -9 -14 -4 -19 -8 -12 -9 7 -1 10 -6
7 -11 -5 -8 -12 -7 -23 2 -15 12 -16 11 -3 -4 15 -21 2 -24 -19 -5 -11 9 -11
8 0 -7 14 -18 13 -19 -4 -13 -13 5 -17 3 -13 -6 3 -8 1 -20 -3 -27 -6 -9 -8
-1 -7 21 2 20 10 44 20 53 20 20 20 23 7 31 -6 4 -9 2 -8 -3 2 -6 -1 -10 -7
-10 -5 0 -9 4 -7 10 1 5 -2 7 -8 3 -7 -4 -9 3 -6 19 3 16 0 25 -7 23 -8 -1
-12 12 -11 34 0 27 -4 35 -14 32 -10 -4 -11 -8 -2 -13 9 -6 8 -11 -2 -21 -13
-12 -12 -16 6 -31 19 -16 19 -17 3 -18 -10 0 -16 4 -13 9 3 5 -1 12 -10 15
-12 4 -15 2 -10 -9 3 -8 1 -15 -4 -15 -15 0 -12 26 4 40 14 11 11 44 -3 35 -4
-2 -8 2 -8 10 0 10 4 12 12 5 7 -5 15 -7 18 -3 10 10 8 45 -2 39 -5 -3 -15 2
-22 12 -13 15 -12 16 3 3 15 -11 19 -11 24 3 3 9 11 16 16 16 7 0 6 -5 -1 -13
-8 -10 -7 -14 4 -14 7 0 14 3 13 6 -2 20 3 31 12 26 6 -4 7 -11 4 -17 -4 -7
-2 -8 4 -4 18 11 -8 45 -30 41 -10 -2 -18 1 -18 7 0 5 7 8 15 4 8 -3 15 0 16
7 0 9 2 9 6 -1 2 -6 10 -9 15 -6 7 5 8 2 3 -6 -6 -9 -4 -11 4 -6 7 5 10 14 8
20 -3 7 1 13 8 13 10 0 11 -5 4 -18z m-5749 -28 c0 -6 -4 -13 -10 -16 -5 -3
-10 1 -10 9 0 9 5 16 10 16 6 0 10 -4 10 -9z m5607 -126 c0 -8 -4 -12 -9 -9
-5 3 -6 10 -3 15 9 13 12 11 12 -6z m-5727 -35 c0 -5 -5 -10 -11 -10 -5 0 -7
5 -4 10 3 6 8 10 11 10 2 0 4 -4 4 -10z m5748 -29 c3 -8 8 -9 16 -2 9 8 13 6
13 -4 0 -8 -3 -13 -5 -10 -3 3 -11 -3 -19 -13 -12 -16 -13 -16 -6 2 4 13 3 17
-5 12 -8 -5 -10 -1 -5 11 6 17 5 17 -13 1 -19 -16 -20 -16 -20 1 0 20 37 22
44 2z m67 9 c-3 -5 -12 -10 -18 -10 -7 0 -6 4 3 10 19 12 23 12 15 0z m-5755
-20 c0 -4 -6 -12 -13 -18 -10 -8 -13 -7 -14 7 -1 10 5 18 13 18 8 0 14 -4 14
-7z m5766 -15 c18 -14 18 -14 0 -15 -13 0 -16 -5 -12 -17 6 -15 5 -15 -13 1
-11 10 -17 24 -14 32 7 18 14 18 39 -1z m-5831 -25 c-3 -5 -11 -10 -16 -10 -6
0 -7 5 -4 10 3 6 11 10 16 10 6 0 7 -4 4 -10z m5917 -22 c-11 -15 -10 -54 3
-65 4 -5 5 -3 1 4 -3 6 -3 14 2 17 4 2 9 -4 9 -15 1 -10 -3 -19 -8 -19 -6 0
-8 -4 -4 -9 3 -5 0 -13 -6 -17 -7 -4 -9 -3 -5 4 5 9 -29 28 -44 25 -3 -1 -7 7
-7 18 -1 13 4 19 14 17 9 -2 18 3 20 10 3 7 -1 10 -11 6 -26 -10 -18 4 12 20
34 19 37 19 24 4z m2494 -1557 c0 -11 -4 -17 -8 -15 -4 3 -8 0 -8 -5 0 -6 6
-11 13 -11 8 0 7 -4 -3 -10 -12 -8 -12 -10 -1 -10 10 0 11 -3 2 -13 -8 -10 -7
-17 1 -25 14 -14 8 -22 -26 -28 -31 -5 -34 8 -6 36 11 11 17 28 15 41 -2 12 0
30 6 40 12 24 15 24 15 0z m-145 -184 c-10 -9 -11 -8 -5 6 3 10 9 15 12 12 3
-3 0 -11 -7 -18z m-10291 -1328 c-7 -11 -14 -18 -17 -15 -3 3 0 12 7 21 18 21
23 19 10 -6z m134 -135 c9 -24 2 -26 -12 -4 -7 11 -8 20 -3 20 5 0 12 -7 15
-16z m-214 -94 c0 -5 -2 -10 -4 -10 -3 0 -8 5 -11 10 -3 6 -1 10 4 10 6 0 11
-4 11 -10z m10687 -40 c-6 -10 -19 -17 -30 -14 -24 4 -32 12 -23 21 4 4 10 2
14 -4 5 -7 12 -6 22 5 13 14 12 15 -3 9 -9 -3 -19 -2 -21 2 -10 15 6 20 29 9
19 -9 22 -14 12 -28z m-37 -45 c0 -21 -13 -25 -35 -9 -16 12 -17 16 -6 23 18
11 41 3 41 -14z m0 -55 c0 -4 -7 -13 -15 -20 -11 -9 -15 -9 -15 -1 0 7 -5 9
-10 6 -6 -4 -9 -1 -8 7 2 7 -3 12 -11 10 -12 -3 -12 0 -1 12 11 15 7 20 -13
17 -5 -1 -6 3 -2 8 6 11 75 -25 75 -39z m-36 -38 c3 -5 -1 -9 -9 -9 -8 0 -12
4 -9 9 3 4 7 8 9 8 2 0 6 -4 9 -8z m66 -116 c0 -2 -7 -7 -16 -10 -8 -3 -12 -2
-9 4 6 10 25 14 25 6z m-10 -60 c0 -2 -8 -10 -17 -17 -16 -13 -17 -12 -4 4 13
16 21 21 21 13z m-190 -630 c0 -3 -4 -8 -10 -11 -5 -3 -10 -1 -10 4 0 6 5 11
10 11 6 0 10 -2 10 -4z m-1016 -1627 c-21 -24 -29 -18 -14 10 6 12 16 19 21
15 6 -4 4 -13 -7 -25z m-7647 -44 c0 -8 -4 -12 -9 -9 -5 3 -6 10 -3 15 9 13
12 11 12 -6z m8103 5 c0 -5 -2 -10 -4 -10 -3 0 -8 5 -11 10 -3 6 -1 10 4 10 6
0 11 -4 11 -10z m-159 -19 c-5 -9 -6 -22 -4 -28 3 -7 0 -13 -7 -13 -6 0 -8 -4
-5 -10 3 -5 1 -10 -4 -10 -13 0 -14 17 -2 24 5 4 8 17 7 29 -2 14 2 24 10 24
9 0 10 -6 5 -16z m19 -65 c0 -3 -4 -8 -10 -11 -5 -3 -10 -1 -10 4 0 6 5 11 10
11 6 0 10 -2 10 -4z m-130 -145 c0 -5 -7 -12 -16 -15 -14 -5 -15 -4 -4 9 14
17 20 19 20 6z m-92 -100 c21 -18 32 -80 15 -82 -5 0 -16 -2 -27 -4 -43 -8
-60 30 -28 67 8 9 11 22 7 27 -10 18 10 13 33 -8z m-148 -5 c0 4 7 -1 16 -12
8 -10 12 -12 8 -4 -4 9 2 6 15 -6 21 -20 21 -54 -1 -54 -7 0 -6 5 1 14 9 11 8
15 -5 20 -9 3 -20 4 -24 1 -5 -3 -16 5 -24 17 -20 28 -21 44 -1 28 8 -7 15 -9
15 -4z m220 -50 c0 -3 -4 -8 -10 -11 -5 -3 -10 -1 -10 4 0 6 5 11 10 11 6 0
10 -2 10 -4z m-120 -40 c0 -2 -7 -7 -16 -10 -8 -3 -12 -2 -9 4 6 10 25 14 25
6z m90 -2 c0 -8 -19 -13 -24 -6 -3 5 1 9 9 9 8 0 15 -2 15 -3z m33 -9 c4 -8 1
-17 -5 -21 -7 -5 -8 -2 -3 6 6 10 4 12 -10 6 -15 -5 -16 -4 -5 9 15 19 16 19
23 0z"/>
<path d="M8586 9902 c-3 -5 1 -9 9 -9 8 0 12 4 9 9 -3 4 -7 8 -9 8 -2 0 -6 -4
-9 -8z"/>
<path d="M8642 9841 c-11 -7 -11 -9 0 -14 9 -3 15 1 15 9 0 8 -1 14 -1 14 -1
0 -7 -4 -14 -9z"/>
<path d="M8555 9780 c-3 -5 -1 -10 4 -10 6 0 11 5 11 10 0 6 -2 10 -4 10 -3 0
-8 -4 -11 -10z"/>
<path d="M8645 9690 c-4 -6 -11 -8 -16 -5 -5 4 -9 4 -9 1 0 -3 8 -10 18 -15
14 -7 18 -6 18 10 0 22 -2 23 -11 9z"/>
<path d="M11127 8085 c-3 -7 0 -12 8 -11 22 3 27 13 11 19 -8 3 -17 0 -19 -8z"/>
<path d="M11270 6361 c0 -5 5 -13 10 -16 6 -3 10 -2 10 4 0 5 -4 13 -10 16 -5
3 -10 2 -10 -4z"/>
<path d="M11262 6304 c10 -10 20 -16 22 -13 3 3 -5 11 -17 18 -21 13 -21 12
-5 -5z"/>
<path d="M10192 3440 c0 -14 2 -19 5 -12 2 6 2 18 0 25 -3 6 -5 1 -5 -13z"/>
<path d="M10166 3421 c-4 -6 -2 -11 3 -11 6 0 11 -5 11 -11 0 -5 -5 -7 -12 -3
-7 5 -8 3 -3 -5 12 -20 29 3 17 24 -6 12 -11 14 -16 6z"/>
<path d="M10209 3423 c0 -5 -2 -16 -4 -26 -2 -11 -1 -16 3 -13 8 8 14 46 7 46
-3 0 -5 -3 -6 -7z"/>
<path d="M5060 11533 c0 -6 -9 -10 -20 -8 -12 2 -18 0 -15 -6 4 -5 11 -6 17
-3 7 4 8 2 4 -4 -4 -8 -15 -8 -31 -2 -16 6 -27 6 -31 -2 -5 -7 -2 -8 7 -3 12
7 12 5 1 -6 -8 -9 -15 -10 -20 -4 -4 6 -18 9 -32 7 -14 -1 -35 -3 -47 -2 -13
0 -23 -5 -23 -10 0 -6 -5 -10 -11 -10 -5 0 -7 5 -4 11 4 6 -2 5 -14 -3 -11 -7
-23 -19 -26 -26 -2 -7 -1 -11 4 -7 5 3 17 -2 25 -11 9 -9 16 -11 16 -4 0 6 4
9 8 6 4 -2 14 -1 22 4 8 5 22 4 33 -2 13 -7 17 -7 13 0 -3 6 -2 13 4 17 5 3
10 0 10 -7 0 -9 3 -9 10 2 7 11 10 11 10 2 0 -7 5 -10 10 -7 6 4 7 12 4 18 -5
9 -4 9 5 1 16 -15 53 -6 44 10 -4 6 2 4 12 -4 17 -14 18 -13 12 2 -4 10 0 21
8 25 10 6 11 13 5 23 -6 9 -10 10 -10 3z m-134 -55 c3 -4 -1 -5 -10 -4 -8 1
-18 5 -22 8 -3 4 1 5 10 4 8 -1 18 -5 22 -8z m-36 -12 c0 -3 -4 -8 -10 -11 -5
-3 -10 -1 -10 4 0 6 5 11 10 11 6 0 10 -2 10 -4z"/>
<path d="M4445 11400 c-3 -6 -11 -8 -16 -5 -5 3 -6 -2 -2 -11 4 -12 3 -15 -6
-10 -19 12 -63 -2 -54 -17 5 -8 2 -8 -9 1 -12 9 -18 10 -23 2 -4 -6 -13 -9
-21 -6 -8 3 -14 1 -14 -3 0 -5 -11 -8 -25 -7 -13 2 -22 -1 -19 -5 5 -8 -10
-13 -28 -10 -5 0 -8 -3 -8 -9 0 -5 -7 -7 -15 -4 -8 4 -15 1 -15 -5 0 -6 -3
-10 -7 -9 -18 4 -82 -15 -78 -23 3 -4 -4 -6 -15 -4 -11 2 -20 -2 -20 -8 0 -8
-3 -8 -9 1 -6 11 -10 10 -15 -3 -4 -11 -13 -15 -26 -12 -10 3 -24 -1 -31 -9
-6 -8 -15 -11 -20 -8 -5 3 -12 -2 -15 -11 -6 -13 -8 -14 -15 -3 -5 8 -9 9 -9
2 0 -7 -11 -15 -25 -18 -14 -4 -25 -11 -25 -17 0 -8 -5 -7 -15 1 -12 10 -16 9
-21 -4 -3 -9 -10 -13 -15 -10 -5 3 -9 0 -9 -6 0 -6 -4 -8 -10 -5 -5 3 -10 -1
-10 -10 0 -11 5 -15 15 -11 23 9 18 0 -12 -20 -21 -13 -25 -14 -15 -2 10 12 9
18 -3 28 -13 11 -14 10 -8 -6 6 -17 5 -18 -13 -4 -17 14 -18 14 -6 -2 8 -9 10
-23 6 -30 -4 -7 -3 -10 1 -5 5 4 20 -3 33 -15 14 -13 22 -18 19 -11 -4 6 -4
13 0 16 5 2 3 2 -4 1 -7 -2 -15 1 -18 6 -4 6 4 10 17 10 13 0 29 5 36 12 9 9
15 8 27 -8 15 -18 15 -18 8 0 -4 13 -3 17 5 12 8 -4 10 -2 6 7 -3 10 2 14 18
13 13 -1 28 1 33 5 6 4 15 8 20 10 35 7 64 22 59 30 -3 5 2 6 10 3 9 -3 16 -1
16 6 0 6 5 8 10 5 6 -3 10 -2 10 3 0 6 8 9 18 8 9 0 16 5 14 12 -2 10 2 10 18
2 17 -9 19 -8 13 7 -6 16 -5 17 12 3 13 -10 16 -11 11 -2 -6 10 -3 13 10 11
26 -3 55 11 48 23 -4 6 3 5 15 -1 16 -9 21 -9 19 1 -2 6 2 12 9 13 7 0 17 5
24 12 8 8 19 9 36 2 16 -6 22 -5 18 1 -3 6 5 10 19 10 14 0 28 5 32 11 3 6 15
8 26 6 16 -5 17 -3 6 10 -12 15 -11 15 10 4 21 -11 27 -8 22 14 -1 6 4 5 11
-2 13 -13 59 2 59 20 0 5 -7 3 -17 -4 -15 -13 -15 -12 -5 8 16 30 15 38 -3 23
-12 -10 -18 -10 -29 -1 -10 8 -16 9 -21 1z m-455 -214 c0 -2 -7 -9 -15 -16
-13 -11 -14 -10 -9 4 5 14 24 23 24 12z"/>
<path d="M4287 11293 c-4 -3 -7 -11 -7 -17 0 -6 5 -5 12 2 6 6 9 14 7 17 -3 3
-9 2 -12 -2z"/>
<path d="M8096 11254 c-17 -12 -17 -14 -3 -20 9 -3 14 -11 10 -18 -4 -6 1 -5
10 3 13 10 17 10 17 1 0 -7 7 -10 16 -6 8 3 13 2 10 -2 -2 -4 9 -15 25 -25 17
-9 27 -12 24 -7 -8 13 1 13 23 0 9 -5 28 -14 42 -20 14 -5 36 -17 50 -26 23
-15 23 -15 6 0 -34 28 -7 17 30 -11 18 -16 37 -28 41 -28 5 0 14 -4 22 -9 10
-7 12 -5 7 5 -6 10 -4 10 6 -1 16 -18 62 -45 54 -32 -10 16 20 8 47 -12 14
-11 28 -18 32 -17 4 2 11 -1 14 -6 18 -24 69 -51 82 -42 8 5 19 9 24 9 6 0 5
-4 -2 -8 -8 -5 -9 -13 -3 -22 7 -11 10 -12 10 -2 0 7 5 10 10 7 6 -4 8 -10 5
-15 -3 -5 0 -12 6 -16 8 -4 9 -3 5 4 -4 7 -3 12 2 12 6 0 13 -7 16 -16 3 -8
10 -12 16 -9 5 3 10 1 10 -4 0 -6 5 -11 11 -11 5 0 7 4 4 10 -3 6 1 7 9 4 9
-3 13 -11 10 -16 -4 -6 3 -5 16 2 20 11 21 10 11 -9 -11 -20 -11 -20 26 1 21
12 40 23 42 24 1 2 -11 2 -28 2 -17 -1 -35 3 -39 7 -4 4 3 5 15 2 13 -3 25 -2
27 2 3 4 -5 8 -17 8 -12 1 -23 7 -25 13 -2 5 -8 10 -13 10 -6 0 -7 -4 -4 -10
3 -5 1 -10 -4 -10 -10 0 -15 14 -12 33 2 11 -14 8 -28 -5 -11 -10 -13 -10 -7
0 4 6 2 12 -4 12 -6 0 -9 4 -6 9 4 5 -5 8 -19 6 -14 -1 -28 2 -32 8 -4 6 -1 7
8 2 8 -5 11 -4 6 0 -4 5 -17 10 -29 12 -28 4 -49 23 -41 36 3 5 1 7 -5 3 -6
-3 -23 -1 -39 6 -15 6 -32 10 -36 10 -4 -1 -10 5 -13 13 -5 11 -10 12 -26 4
-15 -8 -19 -8 -14 0 13 20 -4 32 -26 20 -13 -7 -18 -7 -14 0 8 12 -24 30 -43
23 -8 -3 -11 0 -7 7 5 7 1 9 -8 5 -9 -3 -16 -1 -16 5 0 6 -9 11 -19 11 -11 0
-23 5 -26 11 -4 6 -13 8 -21 5 -8 -3 -14 -1 -14 5 0 6 -4 8 -9 5 -5 -3 -12 1
-15 10 -4 9 -9 14 -13 11 -3 -4 -13 -1 -21 6 -13 10 -14 9 -7 -3 6 -12 5 -13
-6 -2 -7 6 -21 12 -31 12 -10 0 -18 5 -18 10 0 6 -9 10 -20 10 -11 0 -20 4
-20 8 0 13 -34 11 -54 -4z m548 -260 c3 -8 2 -12 -4 -9 -6 3 -10 10 -10 16 0
14 7 11 14 -7z"/>
<path d="M8856 10897 c-16 -12 -16 -14 -2 -14 9 0 16 4 16 9 0 5 5 6 10 3 6
-3 10 -1 10 4 0 15 -12 14 -34 -2z"/>
<path d="M7435 10860 c3 -5 8 -10 11 -10 2 0 4 5 4 10 0 6 -5 10 -11 10 -5 0
-7 -4 -4 -10z"/>
<path d="M7550 10839 c0 -5 5 -7 10 -4 6 3 10 8 10 11 0 2 -4 4 -10 4 -5 0
-10 -5 -10 -11z"/>
<path d="M3213 10825 c3 -6 -3 -17 -15 -24 -11 -7 -17 -8 -13 -2 3 6 1 11 -4
11 -6 0 -11 -4 -11 -10 0 -5 -6 -10 -13 -10 -7 0 -23 -9 -35 -20 -12 -11 -26
-20 -32 -20 -10 0 -21 -8 -55 -37 -7 -7 -18 -13 -24 -13 -6 0 -11 -5 -11 -11
0 -5 -4 -7 -10 -4 -5 3 -10 -1 -10 -10 0 -9 -4 -14 -9 -10 -5 3 -16 -2 -25
-11 -9 -8 -20 -13 -25 -9 -5 3 -12 -4 -16 -15 -3 -11 -13 -20 -21 -20 -8 0
-14 -4 -14 -10 0 -5 -5 -10 -10 -10 -6 0 -20 -9 -32 -20 -12 -10 -24 -17 -28
-15 -5 3 -10 -2 -14 -10 -3 -8 -13 -15 -21 -15 -9 0 -13 -4 -10 -10 3 -5 0
-10 -7 -10 -13 0 -62 -36 -105 -77 -13 -12 -23 -20 -23 -18 0 5 -42 -29 -76
-61 -13 -12 -25 -19 -28 -16 -3 3 -6 -3 -6 -12 0 -12 -5 -16 -15 -12 -14 5
-20 -6 -16 -28 1 -5 -6 -3 -15 5 -12 9 -15 9 -10 2 4 -8 2 -13 -8 -13 -8 0
-18 -9 -21 -21 -4 -11 -9 -18 -12 -15 -3 3 -16 -5 -28 -19 -13 -13 -26 -21
-31 -17 -4 4 -4 -1 -1 -10 3 -10 3 -17 -1 -17 -20 3 -28 -3 -28 -20 0 -11 4
-17 8 -15 4 3 8 0 8 -7 0 -8 3 -9 13 0 8 6 18 7 22 3 5 -4 6 -2 3 3 -6 11 27
46 36 38 3 -3 8 2 12 11 3 9 13 16 21 16 8 0 11 5 8 10 -3 6 -2 10 4 10 5 0
23 14 40 31 17 17 31 28 31 25 0 -3 12 6 26 19 15 14 31 25 36 25 5 0 6 5 2
12 -5 8 -2 9 9 5 11 -4 17 -1 17 8 0 8 7 15 15 15 8 0 15 5 15 11 0 5 5 7 10
4 6 -3 10 -2 10 4 0 5 9 13 20 16 11 4 18 10 15 15 -3 5 6 12 20 16 14 3 22
11 18 17 -4 6 0 8 10 4 11 -4 17 -1 17 7 0 7 11 18 25 24 14 6 25 16 25 21 0
6 8 7 17 4 13 -5 15 -2 10 11 -4 9 -3 15 2 12 4 -3 17 4 29 14 12 11 26 20 31
20 6 0 15 8 20 18 9 15 12 15 22 2 9 -12 10 -11 6 8 -5 19 -3 21 9 11 12 -10
13 -9 8 5 -4 12 0 16 15 16 12 0 21 5 21 11 0 5 4 8 9 5 5 -3 11 1 15 9 3 8
12 15 21 15 8 0 15 5 15 12 0 6 3 8 6 5 4 -3 18 2 32 13 13 11 28 17 33 14 5
-3 6 2 3 11 -5 11 -2 14 10 9 9 -4 18 0 22 9 3 9 12 13 21 10 12 -5 14 -3 8 7
-6 10 -4 12 11 6 10 -4 15 -4 11 0 -4 4 -2 13 5 21 9 11 7 18 -7 31 -10 9 -15
12 -12 7z"/>
<path d="M4175 10770 c3 -5 8 -10 11 -10 2 0 4 5 4 10 0 6 -5 10 -11 10 -5 0
-7 -4 -4 -10z"/>
<path d="M8330 10311 c0 -6 4 -13 10 -16 6 -3 7 1 4 9 -7 18 -14 21 -14 7z"/>
<path d="M3238 10283 c7 -3 16 -2 19 1 4 3 -2 6 -13 5 -11 0 -14 -3 -6 -6z"/>
<path d="M8430 10262 c0 -6 5 -14 10 -17 6 -4 7 -11 4 -17 -4 -7 -2 -8 5 -4 9
6 9 12 -1 24 -7 10 -14 19 -15 21 -2 2 -3 -1 -3 -7z"/>
<path d="M8485 10200 c-4 -6 1 -7 11 -3 11 4 15 3 11 -4 -5 -7 1 -9 15 -5 21
5 21 6 2 13 -27 11 -32 10 -39 -1z"/>
<path d="M8710 10120 c-9 -6 -10 -10 -3 -10 6 0 15 5 18 10 8 12 4 12 -15 0z"/>
<path d="M8665 10040 c4 -6 11 -8 16 -5 14 9 11 15 -7 15 -8 0 -12 -5 -9 -10z"/>
<path d="M2842 9929 c-7 -12 -19 -18 -27 -15 -10 3 -12 0 -8 -11 4 -10 2 -14
-4 -10 -5 3 -10 0 -10 -8 0 -10 4 -12 12 -5 9 7 16 6 24 -3 6 -8 9 -16 6 -19
-3 -2 2 -5 10 -5 10 0 12 4 5 12 -5 7 -6 15 -2 19 4 4 3 6 -3 4 -5 -1 -10 2
-10 7 0 6 5 9 10 7 6 -2 7 0 3 4 -4 4 -3 13 4 21 6 7 9 15 7 18 -3 2 -10 -5
-17 -16z"/>
<path d="M2836 9817 c3 -10 9 -15 12 -12 3 3 0 11 -7 18 -10 9 -11 8 -5 -6z"/>
<path d="M2860 9761 c0 -8 -3 -11 -7 -8 -3 4 -12 2 -19 -4 -9 -7 -19 -7 -33 0
-14 8 -22 8 -27 -1 -4 -6 -3 -8 3 -5 6 4 16 1 22 -7 9 -11 46 -15 46 -6 0 1 8
3 19 5 10 2 24 9 30 16 8 9 8 10 -3 4 -8 -4 -17 -2 -22 6 -7 12 -9 12 -9 0z"/>
<path d="M10375 8991 c-3 -5 -2 -12 3 -15 5 -3 9 1 9 9 0 17 -3 19 -12 6z"/>
<path d="M11000 8100 c-9 -6 -10 -10 -3 -10 6 0 15 5 18 10 8 12 4 12 -15 0z"/>
<path d="M11051 8074 c0 -11 3 -14 6 -6 3 7 2 16 -1 19 -3 4 -6 -2 -5 -13z"/>
<path d="M673 6685 c0 -8 4 -15 9 -15 4 0 8 4 8 9 0 6 -4 12 -8 15 -5 3 -9 -1
-9 -9z"/>
<path d="M11344 6479 c-4 -8 1 -9 16 -4 17 5 21 4 15 -5 -5 -9 -4 -11 4 -6 6
4 9 12 6 17 -8 12 -32 11 -41 -2z"/>
<path d="M11326 6338 c3 -5 10 -6 15 -3 13 9 11 12 -6 12 -8 0 -12 -4 -9 -9z"/>
<path d="M11332 6106 c2 -1 10 -7 19 -14 13 -10 18 -10 22 0 3 8 -5 14 -20 14
-13 1 -23 1 -21 0z"/>
<path d="M587 6043 c3 -7 1 -13 -4 -13 -5 0 -9 -13 -9 -30 0 -16 4 -30 10 -30
6 0 5 -4 -3 -9 -12 -8 -12 -12 -2 -24 6 -9 8 -18 3 -21 -5 -3 -9 -20 -10 -38
-1 -23 2 -28 8 -18 13 20 13 3 0 -20 -7 -13 -7 -21 0 -25 6 -4 7 -12 3 -18
-11 -18 -11 -47 0 -47 5 0 7 -9 4 -20 -3 -12 3 -30 14 -43 11 -13 18 -17 19
-9 0 7 4 11 9 7 5 -3 12 -1 16 5 3 5 1 10 -5 10 -6 0 -8 5 -3 13 4 6 6 20 4
31 -2 13 1 16 11 10 10 -6 10 -4 -1 9 -7 9 -10 17 -5 17 5 0 2 5 -6 10 -8 5
-10 10 -5 10 6 0 10 34 9 82 0 46 4 89 10 97 8 11 8 13 -1 8 -8 -5 -11 1 -9
20 2 15 -2 32 -8 38 -16 16 -55 14 -49 -2z"/>
<path d="M11365 5980 c-3 -6 1 -7 9 -4 18 7 21 14 7 14 -6 0 -13 -4 -16 -10z"/>
<path d="M11587 5738 c6 -11 31 -10 37 1 3 5 -5 8 -18 7 -13 0 -22 -4 -19 -8z"/>
<path d="M11570 5720 c0 -5 5 -10 11 -10 8 0 7 -5 -1 -15 -18 -22 -8 -25 11
-5 15 16 15 18 -2 29 -12 7 -19 7 -19 1z"/>
<path d="M11628 5703 c7 -3 16 -2 19 1 4 3 -2 6 -13 5 -11 0 -14 -3 -6 -6z"/>
<path d="M10173 3838 c-26 -13 -30 -25 -8 -25 8 0 13 3 10 5 -3 3 3 11 13 18
20 16 15 17 -15 2z"/>
<path d="M10495 3721 c-3 -5 -2 -12 3 -15 5 -3 9 1 9 9 0 17 -3 19 -12 6z"/>
<path d="M10810 3702 c0 -7 -3 -11 -7 -9 -5 3 -21 -8 -38 -24 -29 -28 -29 -28
-5 -23 l25 5 -23 -13 c-21 -13 -21 -15 -5 -32 17 -18 17 -18 -12 0 -29 18 -30
18 -15 -1 14 -17 13 -18 -4 -12 -16 6 -17 5 -6 -8 11 -14 7 -19 -13 -16 -4 1
-3 -8 4 -20 9 -17 8 -20 -2 -14 -9 6 -11 4 -6 -8 3 -8 0 -18 -8 -21 -8 -3 -12
-14 -10 -26 2 -11 0 -18 -6 -15 -5 4 -6 12 -3 18 4 7 3 8 -2 4 -9 -8 -10 -12
-13 -38 0 -6 -9 -8 -18 -4 -15 5 -16 4 -5 -6 16 -17 15 -32 -2 -26 -9 4 -13 0
-12 -11 2 -9 -4 -23 -13 -30 -12 -10 -13 -12 -1 -6 8 4 12 4 8 -1 -4 -4 -2
-15 5 -24 6 -8 -4 -5 -23 9 -19 13 -29 17 -22 10 14 -17 16 -44 2 -35 -5 3
-10 0 -10 -9 0 -8 -6 -17 -12 -19 -10 -4 -9 -6 1 -6 9 -1 5 -9 -12 -25 -14
-13 -23 -27 -20 -30 4 -3 0 -6 -8 -6 -12 0 -11 -2 1 -11 12 -9 11 -10 -7 -6
-29 7 -29 -10 -1 -33 26 -21 61 -10 51 16 -3 9 0 14 8 12 9 -2 13 4 11 15 -2
10 3 16 10 15 7 -2 12 3 10 10 -1 7 5 15 14 19 13 5 13 7 2 14 -10 7 -9 9 5 9
10 0 15 5 12 10 -3 6 -1 10 5 10 6 0 9 4 5 9 -3 5 -1 12 5 16 6 4 7 12 3 18
-4 7 1 6 10 -2 15 -12 17 -12 12 1 -3 8 1 21 10 28 11 10 13 16 4 26 -6 8 -16
11 -22 7 -6 -3 -7 -1 -3 6 6 9 11 9 22 0 11 -9 14 -9 14 0 0 7 4 10 9 6 6 -3
8 4 6 16 -5 25 12 52 26 43 5 -3 6 2 3 10 -3 9 -1 16 6 16 6 0 8 5 5 10 -3 6
-1 10 4 10 6 0 11 7 11 16 0 9 5 12 12 8 6 -4 8 -3 5 3 -3 5 5 26 18 46 27 39
32 62 13 52 -7 -4 -5 0 4 8 15 12 16 16 3 33 -9 12 -14 14 -15 6z"/>
<path d="M10325 3660 c-4 -6 -1 -9 6 -8 6 2 14 -3 17 -11 3 -8 0 -11 -7 -7 -7
5 -9 1 -4 -10 4 -12 3 -15 -5 -10 -8 5 -10 2 -5 -10 5 -13 2 -15 -18 -10 -23
6 -23 6 -2 -5 31 -16 27 -65 -6 -63 -21 1 -21 0 -7 -14 13 -13 17 -13 32 -1
15 11 16 12 10 0 -6 -9 -5 -12 5 -9 8 3 13 11 12 17 -2 6 2 11 7 11 6 0 10 -6
10 -14 0 -8 4 -18 10 -21 12 -7 2 23 -14 44 -8 11 -8 13 2 7 7 -4 12 -2 12 4
0 6 5 8 12 4 7 -4 8 -3 4 5 -4 6 -12 8 -18 5 -7 -4 -8 -2 -4 4 4 7 3 12 -2 12
-5 0 -14 -10 -20 -22 -6 -13 -11 -17 -11 -10 -1 6 8 21 19 32 11 11 20 22 20
25 0 3 0 9 0 13 0 5 7 9 15 9 8 0 15 -4 15 -9 0 -4 -6 -8 -13 -8 -8 0 -14 -7
-14 -15 0 -8 7 -15 14 -15 8 0 12 4 8 9 -3 5 -1 12 5 16 14 9 12 21 -6 40 -9
9 -23 14 -32 10 -8 -3 -20 -1 -27 5 -9 8 -15 8 -20 0z m49 -25 c-4 -8 -11 -15
-16 -15 -6 0 -5 6 2 15 7 8 14 15 16 15 2 0 1 -7 -2 -15z m-33 -48 c-10 -9
-11 -8 -5 6 3 10 9 15 12 12 3 -3 0 -11 -7 -18z"/>
<path d="M10295 3620 c-3 -5 -1 -10 4 -10 6 0 11 5 11 10 0 6 -2 10 -4 10 -3
0 -8 -4 -11 -10z"/>
<path d="M10430 3620 c0 -5 5 -10 11 -10 5 0 7 5 4 10 -3 6 -8 10 -11 10 -2 0
-4 -4 -4 -10z"/>
<path d="M10236 3593 c-6 -14 -5 -15 5 -6 7 7 10 15 7 18 -3 3 -9 -2 -12 -12z"/>
<path d="M10155 3531 c-3 -5 -2 -12 3 -15 5 -3 9 1 9 9 0 17 -3 19 -12 6z"/>
<path d="M9930 3518 c0 -4 4 -8 9 -8 6 0 12 4 15 8 3 5 -1 9 -9 9 -8 0 -15 -4
-15 -9z"/>
<path d="M10243 3493 c-15 -5 -17 -23 -4 -23 5 0 11 7 15 15 3 8 4 15 3 14 -1
0 -8 -3 -14 -6z"/>
<path d="M10346 3452 c-3 -5 1 -15 8 -21 11 -10 14 -9 12 3 -3 21 -13 29 -20
18z"/>
<path d="M10380 3380 c-8 -5 -10 -10 -5 -10 6 0 17 5 25 10 8 5 11 10 5 10 -5
0 -17 -5 -25 -10z"/>
<path d="M10340 3351 c-7 -15 -7 -22 2 -27 7 -4 10 -4 6 1 -4 4 -3 16 3 26 5
11 7 19 5 19 -3 0 -10 -9 -16 -19z"/>
<path d="M10380 3346 c0 -2 8 -10 18 -17 15 -13 16 -12 3 4 -13 16 -21 21 -21
13z"/>
<path d="M10355 3280 c3 -5 8 -10 11 -10 2 0 4 5 4 10 0 6 -5 10 -11 10 -5 0
-7 -4 -4 -10z"/>
</g>
</svg>
